<?xml version="1.0" encoding="UTF-8"?>
<svg xmlns="http://www.w3.org/2000/svg" xmlns:xlink="http://www.w3.org/1999/xlink" width="408.226pt" height="255.118pt" viewBox="0 0 408.226 255.118">
<defs>
<clipPath id="clip-0">
<path clip-rule="nonzero" d="M 0.316406 0 L 407.136719 0 L 407.136719 85 L 0.316406 85 Z M 0.316406 0 "/>
</clipPath>
<clipPath id="clip-1">
<path clip-rule="nonzero" d="M 0.316406 84 L 407.136719 84 L 407.136719 170 L 0.316406 170 Z M 0.316406 84 "/>
</clipPath>
<clipPath id="clip-2">
<path clip-rule="nonzero" d="M 0.316406 169 L 407.136719 169 L 407.136719 254.238281 L 0.316406 254.238281 Z M 0.316406 169 "/>
</clipPath>
</defs>
<g clip-path="url(#clip-0)">
<path fill-rule="nonzero" fill="rgb(42.353821%, 67.449951%, 89.411926%)" fill-opacity="1" d="M 0.316406 84.75 L 0.316406 0 L 407.140625 0 L 407.140625 84.75 Z M 0.316406 84.75 "/>
</g>
<g clip-path="url(#clip-1)">
<path fill-rule="nonzero" fill="rgb(100%, 100%, 100%)" fill-opacity="1" d="M 0.316406 169.496094 L 0.316406 84.75 L 407.140625 84.75 L 407.140625 169.496094 Z M 0.316406 169.496094 "/>
</g>
<g clip-path="url(#clip-2)">
<path fill-rule="nonzero" fill="rgb(42.353821%, 67.449951%, 89.411926%)" fill-opacity="1" d="M 0.316406 254.242188 L 0.316406 169.496094 L 407.140625 169.496094 L 407.140625 254.242188 Z M 0.316406 254.242188 "/>
</g>
<path fill-rule="nonzero" fill="rgb(100%, 80.39093%, 0%)" fill-opacity="1" stroke-width="0.56755" stroke-linecap="butt" stroke-linejoin="miter" stroke="rgb(51.371765%, 22.3526%, 12.940979%)" stroke-opacity="1" stroke-miterlimit="10" d="M -1.611793 -0.667938 L 12.906979 -32.300359 C 12.906979 -32.300359 13.153924 -32.904001 13.557658 -32.735452 C 13.961393 -32.570822 13.710529 -31.96718 13.710529 -31.96718 L 1.610246 0.668698 M 1.265307 -11.639332 C 1.088918 -16.448871 4.048333 -19.094705 3.660277 -23.390757 C 3.272222 -27.686808 5.631914 -30.117056 6.18068 -31.786871 C 6.729445 -33.456687 5.588797 -34.456224 6.078766 -34.695329 C 6.568736 -34.934434 7.646668 -33.613477 7.29389 -31.238106 C 6.945032 -28.862734 5.141945 -28.157178 5.565278 -22.912547 C 5.988612 -17.663995 3.421172 -16.441031 4.044413 -11.655011 " transform="matrix(0.996555, 0, 0, -0.996555, 203.727333, 127.119519)"/>
<path fill-rule="nonzero" fill="rgb(51.371765%, 22.3526%, 12.940979%)" fill-opacity="1" d="M 205.917969 139.53125 C 206.148438 144.136719 208.757812 146.175781 208.246094 150.371094 C 209.371094 147.050781 206.660156 144.480469 206.8125 139.578125 M 202.925781 127.5 L 212.832031 149.148438 L 204.53125 126.832031 "/>
<path fill-rule="nonzero" fill="rgb(100%, 80.39093%, 0%)" fill-opacity="1" stroke-width="0.56755" stroke-linecap="butt" stroke-linejoin="miter" stroke="rgb(51.371765%, 22.3526%, 12.940979%)" stroke-opacity="1" stroke-miterlimit="10" d="M -1.745064 -0.00157981 L -0.435866 -34.777644 C -0.435866 -34.777644 -0.435866 -35.432243 -0.000773501 -35.432243 C 0.434319 -35.432243 0.434319 -34.777644 0.434319 -34.777644 L 1.743517 -0.00157981 M -3.285528 -11.235597 C -5.288523 -15.613963 -3.56775 -19.188779 -5.570745 -23.01054 C -7.56982 -26.832301 -6.319418 -29.979864 -6.45269 -31.731995 C -6.585962 -33.484125 -8.024512 -33.970175 -7.659974 -34.377829 C -7.295437 -34.785484 -5.798091 -33.978014 -5.214047 -31.64968 C -4.630004 -29.321346 -6.025437 -27.980789 -3.626547 -23.296682 C -1.227657 -18.608656 -3.132658 -16.495908 -0.722008 -12.317449 " transform="matrix(0.996555, 0, 0, -0.996555, 203.727333, 127.119519)"/>
<path fill-rule="nonzero" fill="rgb(51.371765%, 22.3526%, 12.940979%)" fill-opacity="1" d="M 201.003906 139.425781 C 199.453125 143.765625 201.085938 146.648438 199.007812 150.328125 C 201.316406 147.691406 199.792969 144.277344 201.808594 139.8125 M 202.839844 127.164062 L 203.710938 150.953125 L 204.578125 127.160156 "/>
<path fill-rule="nonzero" fill="rgb(100%, 80.39093%, 0%)" fill-opacity="1" stroke-width="0.56755" stroke-linecap="butt" stroke-linejoin="miter" stroke="rgb(51.371765%, 22.3526%, 12.940979%)" stroke-opacity="1" stroke-miterlimit="10" d="M -1.611793 0.668698 L -13.712076 -31.96326 C -13.712076 -31.96326 -13.96294 -32.566903 -13.559205 -32.735452 C -13.15939 -32.904001 -12.908526 -32.296439 -12.908526 -32.296439 L 1.610246 -0.667938 M -7.338554 -9.122849 C -10.862414 -12.399764 -10.642908 -16.362636 -13.951181 -19.126063 C -17.263374 -21.89341 -17.31433 -25.280078 -18.106121 -26.84798 C -18.901831 -28.415882 -20.414856 -28.313969 -20.234548 -28.831376 C -20.054239 -29.344864 -18.360905 -29.172395 -16.930194 -27.247795 C -15.499484 -25.319276 -16.275595 -23.543627 -12.265686 -20.13344 C -8.255777 -16.723254 -9.208277 -14.042141 -5.382597 -11.102325 " transform="matrix(0.996555, 0, 0, -0.996555, 203.727333, 127.119519)"/>
<path fill-rule="nonzero" fill="rgb(51.371765%, 22.3526%, 12.940979%)" fill-opacity="1" d="M 196.5 137.445312 C 193.410156 140.863281 193.8125 144.152344 190.484375 146.753906 C 193.625 145.203125 193.523438 141.46875 197.097656 138.113281 M 202.890625 126.820312 L 194.589844 149.132812 L 204.496094 127.484375 "/>
<path fill-rule="nonzero" fill="rgb(100%, 80.39093%, 0%)" fill-opacity="1" stroke-width="0.56755" stroke-linecap="butt" stroke-linejoin="miter" stroke="rgb(51.371765%, 22.3526%, 12.940979%)" stroke-opacity="1" stroke-miterlimit="10" d="M -1.235496 1.233143 L -24.899056 -24.280541 C -24.899056 -24.280541 -25.361587 -24.743072 -25.055846 -25.052733 C -24.746185 -25.362393 -24.283654 -24.899862 -24.283654 -24.899862 L 1.233949 -1.232383 M -10.270531 -5.622508 C -14.782169 -7.300163 -16.091367 -11.043529 -20.211029 -12.333128 C -24.326772 -13.618808 -25.667328 -16.727173 -27.000044 -17.871742 C -28.336681 -19.01631 -29.692916 -18.346032 -29.724274 -18.890878 C -29.759552 -19.435724 -28.125014 -19.925693 -26.067143 -18.690971 C -24.005352 -17.460168 -24.044549 -15.523809 -19.035103 -13.90887 C -14.025656 -12.290011 -13.880625 -9.452109 -9.220037 -8.197787 " transform="matrix(0.996555, 0, 0, -0.996555, 203.727333, 127.119519)"/>
<path fill-rule="nonzero" fill="rgb(51.371765%, 22.3526%, 12.940979%)" fill-opacity="1" d="M 193.097656 133.894531 C 188.933594 135.867188 188.050781 139.058594 183.976562 140.191406 C 187.472656 139.960938 188.8125 136.46875 193.398438 134.738281 M 203.070312 126.523438 L 186.859375 143.960938 L 204.296875 127.75 "/>
<path fill-rule="nonzero" fill="rgb(100%, 80.39093%, 0%)" fill-opacity="1" stroke-width="0.56755" stroke-linecap="butt" stroke-linejoin="miter" stroke="rgb(51.371765%, 22.3526%, 12.940979%)" stroke-opacity="1" stroke-miterlimit="10" d="M -0.667132 1.613359 L -32.299553 -12.905413 C -32.299553 -12.905413 -32.903195 -13.156277 -32.738565 -13.560012 C -32.570016 -13.963746 -31.966374 -13.712882 -31.966374 -13.712882 L 0.665585 -1.612599 M -11.638525 -1.263741 C -16.451984 -1.087352 -19.097819 -4.046767 -23.39387 -3.658711 C -27.689921 -3.274575 -30.116249 -5.634267 -31.786065 -6.179113 C -33.4598 -6.727879 -34.455418 -5.58723 -34.694523 -6.0772 C -34.933628 -6.571089 -33.612671 -7.645102 -31.237299 -7.296243 C -28.861928 -6.943466 -28.156372 -5.140378 -22.91174 -5.563712 C -17.663189 -5.987045 -16.440225 -3.419606 -11.654204 -4.042847 " transform="matrix(0.996555, 0, 0, -0.996555, 203.727333, 127.119519)"/>
<path fill-rule="nonzero" fill="rgb(51.371765%, 22.3526%, 12.940979%)" fill-opacity="1" d="M 191.316406 129.3125 C 186.710938 129.542969 184.671875 132.152344 180.476562 131.640625 C 183.796875 132.765625 186.367188 130.050781 191.265625 130.207031 M 203.347656 126.316406 L 181.699219 136.226562 L 204.011719 127.921875 "/>
<path fill-rule="nonzero" fill="rgb(100%, 80.39093%, 0%)" fill-opacity="1" stroke-width="0.56755" stroke-linecap="butt" stroke-linejoin="miter" stroke="rgb(51.371765%, 22.3526%, 12.940979%)" stroke-opacity="1" stroke-miterlimit="10" d="M -0.000773501 1.746631 L -34.776838 0.437433 C -34.776838 0.437433 -35.431437 0.437433 -35.431437 0.00233994 C -35.431437 -0.436673 -34.776838 -0.436673 -34.776838 -0.436673 L -0.000773501 -1.741951 M -11.23871 3.287094 C -15.613157 5.290089 -19.191893 3.569317 -23.009734 5.568392 C -26.831495 7.571386 -29.979058 6.320985 -31.731188 6.454256 C -33.483319 6.587528 -33.969368 8.022158 -34.377023 7.661541 C -34.784677 7.297004 -33.977208 5.799657 -31.648874 5.215614 C -29.320539 4.627651 -27.979983 6.023083 -23.295876 3.624193 C -18.611769 1.225303 -16.499021 3.134224 -12.316643 0.723575 " transform="matrix(0.996555, 0, 0, -0.996555, 203.727333, 127.119519)"/>
<path fill-rule="nonzero" fill="rgb(51.371765%, 22.3526%, 12.940979%)" fill-opacity="1" d="M 191.421875 124.394531 C 187.082031 122.847656 184.199219 124.476562 180.519531 122.398438 C 183.152344 124.707031 186.566406 123.183594 191.035156 125.203125 M 203.683594 126.230469 L 179.890625 127.101562 L 203.683594 127.96875 "/>
<path fill-rule="nonzero" fill="rgb(100%, 80.39093%, 0%)" fill-opacity="1" stroke-width="0.56755" stroke-linecap="butt" stroke-linejoin="miter" stroke="rgb(51.371765%, 22.3526%, 12.940979%)" stroke-opacity="1" stroke-miterlimit="10" d="M 0.665585 1.613359 L -31.962454 13.713642 C -31.962454 13.713642 -32.570016 13.964506 -32.734646 13.560772 C -32.903195 13.157037 -32.299553 12.906173 -32.299553 12.906173 L -0.667132 -1.612599 M -9.125963 7.336201 C -12.402878 10.86398 -16.36575 10.640554 -19.129177 13.952747 C -21.892604 17.26494 -25.279272 17.311977 -26.847174 18.107687 C -28.415076 18.899478 -28.317082 20.412503 -28.83057 20.236114 C -29.347978 20.055805 -29.171589 18.362471 -27.246989 16.927841 C -25.31847 15.497131 -23.54674 16.273242 -20.136554 12.263333 C -16.726367 8.253424 -14.045255 9.209844 -11.101519 5.380244 " transform="matrix(0.996555, 0, 0, -0.996555, 203.727333, 127.119519)"/>
<path fill-rule="nonzero" fill="rgb(51.371765%, 22.3526%, 12.940979%)" fill-opacity="1" d="M 193.402344 119.894531 C 189.984375 116.800781 186.695312 117.203125 184.089844 113.875 C 185.640625 117.015625 189.378906 116.917969 192.734375 120.492188 M 204.027344 126.28125 L 181.710938 117.980469 L 203.363281 127.890625 "/>
<path fill-rule="nonzero" fill="rgb(100%, 80.39093%, 0%)" fill-opacity="1" stroke-width="0.56755" stroke-linecap="butt" stroke-linejoin="miter" stroke="rgb(51.371765%, 22.3526%, 12.940979%)" stroke-opacity="1" stroke-miterlimit="10" d="M 1.233949 1.233143 L -24.283654 24.900622 C -24.283654 24.900622 -24.746185 25.363153 -25.051926 25.053493 C -25.361587 24.747752 -24.899056 24.285221 -24.899056 24.285221 L -1.231577 -1.232383 M -5.621702 10.268178 C -7.299357 14.779815 -11.046642 16.092933 -12.332322 20.208676 C -13.618002 24.328338 -16.726367 25.668894 -17.870936 27.001611 C -19.019424 28.334327 -18.349146 29.694482 -18.890072 29.72584 C -19.434918 29.757198 -19.924887 28.12658 -18.694084 26.068709 C -17.459361 24.006918 -15.523002 24.046116 -13.908063 19.036669 C -12.293124 14.027223 -9.451302 13.882192 -8.196981 9.221603 " transform="matrix(0.996555, 0, 0, -0.996555, 203.727333, 127.119519)"/>
<path fill-rule="nonzero" fill="rgb(51.371765%, 22.3526%, 12.940979%)" fill-opacity="1" d="M 196.953125 116.492188 C 194.980469 112.328125 191.789062 111.441406 190.65625 107.371094 C 190.886719 110.867188 194.375 112.203125 196.109375 116.789062 M 204.324219 126.460938 L 186.886719 110.253906 L 203.09375 127.691406 "/>
<path fill-rule="nonzero" fill="rgb(100%, 80.39093%, 0%)" fill-opacity="1" stroke-width="0.56755" stroke-linecap="butt" stroke-linejoin="miter" stroke="rgb(51.371765%, 22.3526%, 12.940979%)" stroke-opacity="1" stroke-miterlimit="10" d="M 1.614165 0.668698 L -12.904606 32.301119 C -12.904606 32.301119 -13.155471 32.904762 -13.559205 32.736212 C -13.96294 32.571582 -13.712076 31.96794 -13.712076 31.96794 L -1.611793 -0.667938 M -1.262935 11.640092 C -1.086546 16.449631 -4.04596 19.095465 -3.657905 23.391517 C -3.273769 27.687568 -5.633461 30.117816 -6.178307 31.787631 C -6.727073 33.457447 -5.586424 34.456984 -6.080313 34.69609 C -6.570283 34.931275 -7.644295 33.614237 -7.295437 31.238866 C -6.942659 28.863494 -5.139572 28.157939 -5.566825 22.909387 C -5.990159 17.664755 -3.4188 16.441791 -4.04596 11.655771 " transform="matrix(0.996555, 0, 0, -0.996555, 203.727333, 127.119519)"/>
<path fill-rule="nonzero" fill="rgb(51.371765%, 22.3526%, 12.940979%)" fill-opacity="1" d="M 201.535156 114.707031 C 201.304688 110.105469 198.695312 108.066406 199.207031 103.871094 C 198.082031 107.1875 200.796875 109.757812 200.640625 114.660156 M 204.53125 126.738281 L 194.621094 105.089844 L 202.925781 127.40625 "/>
<path fill-rule="nonzero" fill="rgb(100%, 80.39093%, 0%)" fill-opacity="1" stroke-width="0.56755" stroke-linecap="butt" stroke-linejoin="miter" stroke="rgb(51.371765%, 22.3526%, 12.940979%)" stroke-opacity="1" stroke-miterlimit="10" d="M 1.743517 0.00233994 L 0.438239 34.778404 C 0.438239 34.778404 0.438239 35.433003 -0.000773501 35.433003 C -0.435866 35.433003 -0.435866 34.778404 -0.435866 34.778404 L -1.745064 0.00233994 M 3.287901 11.236357 C 5.290895 15.614723 3.570123 19.18954 5.569198 23.011301 C 7.572193 26.833061 6.321791 29.976705 6.455063 31.728835 C 6.588334 33.484885 8.022965 33.970935 7.658427 34.378589 C 7.29781 34.786244 5.800464 33.978774 5.2125 31.65044 C 4.628457 29.322106 6.02389 27.98155 3.625 23.293523 C 1.22611 18.609416 3.131111 16.496668 0.724381 12.31429 " transform="matrix(0.996555, 0, 0, -0.996555, 203.727333, 127.119519)"/>
<path fill-rule="nonzero" fill="rgb(51.371765%, 22.3526%, 12.940979%)" fill-opacity="1" d="M 206.453125 114.8125 C 208 110.472656 206.371094 107.589844 208.449219 103.910156 C 206.140625 106.546875 207.660156 109.960938 205.644531 114.429688 M 204.613281 127.074219 L 203.746094 103.285156 L 202.875 127.078125 "/>
<path fill-rule="nonzero" fill="rgb(100%, 80.39093%, 0%)" fill-opacity="1" stroke-width="0.56755" stroke-linecap="butt" stroke-linejoin="miter" stroke="rgb(51.371765%, 22.3526%, 12.940979%)" stroke-opacity="1" stroke-miterlimit="10" d="M 1.614165 -0.667938 L 13.714448 31.96402 C 13.714448 31.96402 13.965313 32.567663 13.561578 32.736212 C 13.157843 32.904762 12.906979 32.2972 12.906979 32.2972 L -1.611793 0.668698 M 7.337007 9.123609 C 10.864787 12.400524 10.641361 16.363396 13.953554 19.126824 C 17.261827 21.89417 17.312783 25.276919 18.108494 26.844821 C 18.900284 28.416642 20.413309 28.314729 20.233001 28.832136 C 20.056612 29.345624 18.363278 29.173155 16.928647 27.244636 C 15.497937 25.320036 16.274048 23.544387 12.264139 20.1342 C 8.25423 16.724014 9.20673 14.042902 5.38105 11.103085 " transform="matrix(0.996555, 0, 0, -0.996555, 203.727333, 127.119519)"/>
<path fill-rule="nonzero" fill="rgb(51.371765%, 22.3526%, 12.940979%)" fill-opacity="1" d="M 210.953125 116.792969 C 214.046875 113.375 213.640625 110.089844 216.972656 107.484375 C 213.828125 109.035156 213.929688 112.769531 210.355469 116.128906 M 204.5625 127.417969 L 212.867188 105.105469 L 202.957031 126.753906 "/>
<path fill-rule="nonzero" fill="rgb(100%, 80.39093%, 0%)" fill-opacity="1" stroke-width="0.56755" stroke-linecap="butt" stroke-linejoin="miter" stroke="rgb(51.371765%, 22.3526%, 12.940979%)" stroke-opacity="1" stroke-miterlimit="10" d="M 1.233949 -1.232383 L 24.901429 24.281301 C 24.901429 24.281301 25.36396 24.743832 25.054299 25.053493 C 24.748558 25.363153 24.286027 24.900622 24.286027 24.900622 L -1.231577 1.233143 M 10.268984 5.623268 C 14.780622 7.300923 16.09374 11.044289 20.209482 12.329969 C 24.325225 13.619568 25.665781 16.727934 27.002417 17.872502 C 28.335134 19.01707 29.695289 18.346792 29.726647 18.891638 C 29.758005 19.436484 28.127387 19.926453 26.065596 18.691731 C 24.007725 17.460928 24.046922 15.524569 19.037475 13.90963 C 14.028029 12.290771 13.879078 9.448949 9.21849 8.198547 " transform="matrix(0.996555, 0, 0, -0.996555, 203.727333, 127.119519)"/>
<path fill-rule="nonzero" fill="rgb(51.371765%, 22.3526%, 12.940979%)" fill-opacity="1" d="M 214.355469 120.34375 C 218.519531 118.371094 219.40625 115.179688 223.476562 114.046875 C 219.980469 114.277344 218.644531 117.769531 214.058594 119.5 M 204.386719 127.714844 L 220.59375 110.277344 L 203.15625 126.488281 "/>
<path fill-rule="nonzero" fill="rgb(100%, 80.39093%, 0%)" fill-opacity="1" stroke-width="0.56755" stroke-linecap="butt" stroke-linejoin="miter" stroke="rgb(51.371765%, 22.3526%, 12.940979%)" stroke-opacity="1" stroke-miterlimit="10" d="M 0.669505 -1.612599 L 32.298006 12.906173 C 32.298006 12.906173 32.905568 13.157037 32.737018 13.560772 C 32.572389 13.960587 31.964827 13.709722 31.964827 13.709722 L -0.667132 1.609439 M 11.640898 1.264501 C 16.450437 1.088112 19.096272 4.047527 23.392323 3.659471 C 27.688374 3.271415 30.118622 5.631108 31.788438 6.179873 C 33.458253 6.728639 34.457791 5.587991 34.692976 6.07796 C 34.932081 6.571849 33.611124 7.645862 31.239672 7.293084 C 28.864301 6.944226 28.158745 5.141138 22.910193 5.564472 C 17.665561 5.987805 16.442598 3.420366 11.656577 4.043607 " transform="matrix(0.996555, 0, 0, -0.996555, 203.727333, 127.119519)"/>
<path fill-rule="nonzero" fill="rgb(51.371765%, 22.3526%, 12.940979%)" fill-opacity="1" d="M 216.140625 124.929688 C 220.742188 124.699219 222.78125 122.085938 226.976562 122.601562 C 223.660156 121.472656 221.085938 124.1875 216.1875 124.035156 M 204.105469 127.921875 L 225.757812 118.015625 L 203.441406 126.316406 "/>
<path fill-rule="nonzero" fill="rgb(100%, 80.39093%, 0%)" fill-opacity="1" stroke-width="0.56755" stroke-linecap="butt" stroke-linejoin="miter" stroke="rgb(51.371765%, 22.3526%, 12.940979%)" stroke-opacity="1" stroke-miterlimit="10" d="M -0.000773501 -1.745871 L 34.779211 -0.436673 C 34.779211 -0.436673 35.42989 -0.436673 35.43381 -0.00157981 C 35.43381 0.437433 34.779211 0.433513 34.779211 0.433513 L -0.000773501 1.742711 M 11.237163 -3.286334 C 15.61161 -5.289329 19.190346 -3.568557 23.012107 -5.571551 C 26.829948 -7.570626 29.977511 -6.320225 31.729641 -6.453496 C 33.485692 -6.586768 33.971741 -8.021398 34.379396 -7.660781 C 34.78705 -7.296243 33.979581 -5.798897 31.651246 -5.214854 C 29.322912 -4.62689 27.978436 -6.026243 23.294329 -3.623433 C 18.610222 -1.224543 16.497474 -3.133464 12.315096 -0.722815 " transform="matrix(0.996555, 0, 0, -0.996555, 203.727333, 127.119519)"/>
<path fill-rule="nonzero" fill="rgb(51.371765%, 22.3526%, 12.940979%)" fill-opacity="1" d="M 216.03125 129.84375 C 220.375 131.394531 223.253906 129.761719 226.9375 131.839844 C 224.300781 129.53125 220.886719 131.054688 216.417969 129.035156 M 203.769531 128.007812 L 227.5625 127.136719 L 203.769531 126.269531 "/>
<path fill-rule="nonzero" fill="rgb(100%, 80.39093%, 0%)" fill-opacity="1" stroke-width="0.56755" stroke-linecap="butt" stroke-linejoin="miter" stroke="rgb(51.371765%, 22.3526%, 12.940979%)" stroke-opacity="1" stroke-miterlimit="10" d="M -0.667132 -1.612599 L 31.964827 -13.712882 C 31.964827 -13.712882 32.568469 -13.963746 32.737018 -13.560012 C 32.901648 -13.156277 32.298006 -12.909332 32.298006 -12.909332 L 0.669505 1.609439 M 9.124416 -7.335441 C 12.401331 -10.86322 16.364203 -10.639794 19.12763 -13.951987 C 21.891057 -17.26418 25.277725 -17.311217 26.845627 -18.106927 C 28.413529 -18.902637 28.315535 -20.411743 28.829023 -20.235354 C 29.346431 -20.055045 29.173961 -18.361711 27.245442 -16.931001 C 25.320842 -15.49637 23.545193 -16.272482 20.135007 -12.266493 C 16.72482 -8.256583 14.043708 -9.209084 11.099972 -5.383403 " transform="matrix(0.996555, 0, 0, -0.996555, 203.727333, 127.119519)"/>
<path fill-rule="nonzero" fill="rgb(51.371765%, 22.3526%, 12.940979%)" fill-opacity="1" d="M 214.054688 134.347656 C 217.472656 137.4375 220.757812 137.035156 223.363281 140.363281 C 221.8125 137.222656 218.074219 137.320312 214.71875 133.746094 M 203.429688 127.957031 L 225.742188 136.257812 L 204.09375 126.351562 "/>
<path fill-rule="nonzero" fill="rgb(100%, 80.39093%, 0%)" fill-opacity="1" stroke-width="0.56755" stroke-linecap="butt" stroke-linejoin="miter" stroke="rgb(51.371765%, 22.3526%, 12.940979%)" stroke-opacity="1" stroke-miterlimit="10" d="M -1.235496 -1.236303 L 24.282107 -24.899862 C 24.282107 -24.899862 24.744638 -25.362393 25.054299 -25.056652 C 25.36004 -24.746992 24.897509 -24.284461 24.897509 -24.284461 L 1.233949 1.233143 M 5.620155 -10.271337 C 7.29781 -14.782975 11.045095 -16.092173 12.330775 -20.207916 C 13.620374 -24.327578 16.72874 -25.668134 17.873308 -27.000851 C 19.017877 -28.333567 18.347599 -29.693722 18.892445 -29.72508 C 19.43729 -29.756438 19.92334 -28.12582 18.692537 -26.067949 C 17.457814 -24.006158 15.525375 -24.045356 13.906516 -19.035909 C 12.291577 -14.026462 9.449755 -13.881431 8.195434 -9.220843 " transform="matrix(0.996555, 0, 0, -0.996555, 203.727333, 127.119519)"/>
<path fill-rule="nonzero" fill="rgb(51.371765%, 22.3526%, 12.940979%)" fill-opacity="1" d="M 210.5 137.746094 C 212.476562 141.914062 215.667969 142.796875 216.800781 146.867188 C 216.570312 143.375 213.078125 142.035156 211.347656 137.449219 M 203.128906 127.777344 L 220.570312 143.988281 L 204.359375 126.546875 "/>
<path fill-rule="nonzero" fill="rgb(100%, 80.39093%, 0%)" fill-opacity="1" stroke-width="0.56755" stroke-linecap="butt" stroke-linejoin="miter" stroke="rgb(51.371765%, 22.3526%, 12.940979%)" stroke-opacity="1" stroke-miterlimit="10" d="M -1.611793 -0.667938 L 12.906979 -32.300359 C 12.906979 -32.300359 13.153924 -32.904001 13.557658 -32.735452 C 13.961393 -32.570822 13.710529 -31.96718 13.710529 -31.96718 L 1.610246 0.668698 M 1.265307 -11.639332 C 1.088918 -16.448871 4.048333 -19.094705 3.660277 -23.390757 C 3.272222 -27.686808 5.631914 -30.117056 6.18068 -31.786871 C 6.729445 -33.456687 5.588797 -34.456224 6.078766 -34.695329 C 6.568736 -34.934434 7.646668 -33.613477 7.29389 -31.238106 C 6.945032 -28.862734 5.141945 -28.157178 5.565278 -22.912547 C 5.988612 -17.663995 3.421172 -16.441031 4.044413 -11.655011 " transform="matrix(0.996555, 0, 0, -0.996555, 203.727333, 127.119519)"/>
<path fill-rule="nonzero" fill="rgb(51.371765%, 22.3526%, 12.940979%)" fill-opacity="1" d="M 205.917969 139.53125 C 206.148438 144.136719 208.757812 146.175781 208.246094 150.371094 C 209.371094 147.050781 206.660156 144.480469 206.8125 139.578125 M 202.925781 127.5 L 212.832031 149.148438 L 204.53125 126.832031 "/>
<path fill-rule="nonzero" fill="rgb(100%, 80.39093%, 0%)" fill-opacity="1" stroke-width="0.7661" stroke-linecap="butt" stroke-linejoin="miter" stroke="rgb(51.371765%, 22.3526%, 12.940979%)" stroke-opacity="1" stroke-miterlimit="10" d="M 14.227936 -0.00157981 C 14.227936 -7.856768 7.858335 -14.22637 -0.000773501 -14.22637 C -7.855962 -14.22637 -14.225564 -7.856768 -14.225564 -0.00157981 C -14.225564 7.857529 -7.855962 14.22713 -0.000773501 14.22713 C 7.858335 14.22713 14.227936 7.857529 14.227936 -0.00157981 Z M 14.227936 -0.00157981 " transform="matrix(0.996555, 0, 0, -0.996555, 203.727333, 127.119519)"/>
<path fill-rule="nonzero" fill="rgb(51.371765%, 22.3526%, 12.940979%)" fill-opacity="1" d="M 208.542969 124.097656 C 207.578125 124.097656 206.65625 124.515625 206.113281 125.386719 C 207.199219 126.363281 209.597656 126.46875 211.226562 125.273438 C 210.523438 124.515625 209.507812 124.097656 208.542969 124.097656 Z M 208.527344 124.320312 C 209.464844 124.304688 210.34375 124.734375 210.464844 125.164062 C 209.378906 126.359375 207.644531 126.253906 206.554688 125.386719 C 207.03125 124.625 207.796875 124.335938 208.527344 124.320312 Z M 208.527344 124.320312 "/>
<path fill-rule="nonzero" fill="rgb(51.371765%, 22.3526%, 12.940979%)" fill-opacity="1" d="M 208.726562 123.429688 C 207.3125 123.429688 206.988281 123.753906 206.335938 124.296875 C 205.683594 124.839844 205.359375 124.730469 205.25 124.839844 C 205.140625 124.949219 205.25 125.273438 205.464844 125.167969 C 205.683594 125.058594 206.117188 124.839844 206.769531 124.296875 C 207.421875 123.753906 208.074219 123.753906 208.726562 123.753906 C 210.679688 123.753906 211.765625 125.382812 211.984375 125.273438 C 212.199219 125.164062 210.898438 123.425781 208.726562 123.425781 Z M 208.726562 123.429688 "/>
<path fill-rule="nonzero" fill="rgb(51.371765%, 22.3526%, 12.940979%)" fill-opacity="1" d="M 212.636719 124.078125 C 210.136719 121.90625 206.988281 121.578125 205.246094 123.210938 C 204.820312 123.78125 204.550781 124.390625 204.4375 125.023438 C 204.21875 126.261719 204.605469 127.597656 205.574219 128.96875 C 205.464844 128.96875 205.246094 129.078125 205.140625 129.1875 C 204.277344 127.535156 203.972656 125.84375 204.253906 124.230469 C 204.328125 123.808594 204.445312 123.394531 204.59375 122.992188 C 206.984375 121.035156 210.242188 120.820312 212.632812 124.078125 Z M 212.636719 124.078125 "/>
<path fill-rule="nonzero" fill="rgb(51.371765%, 22.3526%, 12.940979%)" fill-opacity="1" d="M 209.488281 125.160156 C 209.488281 125.703125 209.050781 126.144531 208.507812 126.144531 C 207.964844 126.144531 207.527344 125.703125 207.527344 125.160156 C 207.527344 124.621094 207.964844 124.179688 208.507812 124.179688 C 209.050781 124.179688 209.488281 124.621094 209.488281 125.160156 Z M 209.488281 125.160156 "/>
<path fill-rule="nonzero" fill="rgb(51.371765%, 22.3526%, 12.940979%)" fill-opacity="1" d="M 211.335938 125.816406 C 209.488281 127.230469 207.640625 127.121094 206.554688 126.46875 C 205.46875 125.816406 205.46875 125.601562 205.683594 125.601562 C 205.902344 125.601562 206.117188 125.816406 206.988281 126.253906 C 207.855469 126.6875 209.160156 126.6875 211.332031 125.816406 Z M 211.335938 125.816406 "/>
<path fill-rule="nonzero" fill="rgb(51.371765%, 22.3526%, 12.940979%)" fill-opacity="1" d="M 201.566406 129.070312 C 201.101562 129.15625 200.773438 129.570312 200.773438 130.042969 C 200.773438 130.582031 201.21875 131.011719 201.757812 131.011719 C 202.074219 131.011719 202.367188 130.859375 202.550781 130.597656 C 202.925781 130.878906 203.449219 130.910156 203.726562 130.914062 C 203.769531 130.917969 203.824219 130.914062 203.855469 130.914062 C 204.132812 130.910156 204.652344 130.878906 205.03125 130.597656 C 205.214844 130.859375 205.507812 131.011719 205.824219 131.011719 C 206.363281 131.011719 206.808594 130.582031 206.808594 130.042969 C 206.808594 129.570312 206.480469 129.15625 206.015625 129.070312 C 206.277344 129.164062 206.445312 129.417969 206.445312 129.691406 C 206.445312 130.050781 206.152344 130.34375 205.792969 130.34375 C 205.445312 130.34375 205.160156 130.070312 205.140625 129.722656 C 205.035156 129.933594 204.617188 130.566406 203.789062 130.597656 C 202.964844 130.566406 202.546875 129.933594 202.441406 129.722656 C 202.421875 130.070312 202.136719 130.34375 201.789062 130.34375 C 201.429688 130.34375 201.136719 130.050781 201.136719 129.691406 C 201.136719 129.417969 201.304688 129.164062 201.566406 129.070312 Z M 201.566406 129.070312 "/>
<path fill-rule="nonzero" fill="rgb(51.371765%, 22.3526%, 12.940979%)" fill-opacity="1" d="M 202.628906 131.964844 C 201.542969 131.964844 201.113281 132.949219 200.132812 133.601562 C 200.675781 133.386719 201.105469 132.957031 201.867188 132.523438 C 202.628906 132.085938 203.277344 132.617188 203.710938 132.617188 L 203.726562 132.617188 C 204.160156 132.617188 204.808594 132.085938 205.570312 132.523438 C 206.328125 132.957031 206.773438 133.386719 207.316406 133.601562 C 206.339844 132.949219 205.894531 131.964844 204.804688 131.964844 C 204.589844 131.964844 204.160156 132.082031 203.726562 132.300781 L 203.710938 132.300781 C 203.277344 132.082031 202.847656 131.964844 202.628906 131.964844 Z M 202.628906 131.964844 "/>
<path fill-rule="nonzero" fill="rgb(51.371765%, 22.3526%, 12.940979%)" fill-opacity="1" d="M 202.261719 133.25 C 201.832031 133.269531 201.265625 133.355469 200.453125 133.601562 C 202.40625 133.167969 202.839844 133.824219 203.707031 133.824219 L 203.726562 133.824219 C 204.59375 133.824219 205.027344 133.167969 206.980469 133.601562 C 204.808594 132.949219 204.375 133.378906 203.726562 133.378906 L 203.707031 133.378906 C 203.300781 133.378906 202.976562 133.21875 202.261719 133.25 Z M 202.261719 133.25 "/>
<path fill-rule="nonzero" fill="rgb(51.371765%, 22.3526%, 12.940979%)" fill-opacity="1" d="M 200.550781 133.585938 C 200.421875 133.589844 200.285156 133.589844 200.136719 133.601562 C 202.417969 133.820312 201.320312 135.128906 203.710938 135.128906 L 203.726562 135.128906 C 206.117188 135.128906 205.035156 133.820312 207.320312 133.601562 C 204.929688 133.386719 205.683594 134.796875 203.726562 134.796875 L 203.710938 134.796875 C 201.878906 134.796875 202.441406 133.5625 200.550781 133.585938 Z M 200.550781 133.585938 "/>
<path fill-rule="nonzero" fill="rgb(51.371765%, 22.3526%, 12.940979%)" fill-opacity="1" d="M 205.683594 137.117188 C 205.683594 136.035156 204.808594 135.160156 203.730469 135.160156 C 202.648438 135.160156 201.773438 136.035156 201.773438 137.117188 C 201.988281 136.210938 202.800781 135.570312 203.730469 135.570312 C 204.660156 135.570312 205.46875 136.210938 205.683594 137.117188 Z M 205.683594 137.117188 "/>
<path fill-rule="nonzero" fill="rgb(51.371765%, 22.3526%, 12.940979%)" fill-opacity="1" d="M 194.945312 124.078125 C 197.445312 121.90625 200.59375 121.578125 202.335938 123.210938 C 202.757812 123.78125 203.03125 124.390625 203.144531 125.023438 C 203.363281 126.261719 202.976562 127.597656 202.007812 128.96875 C 202.117188 128.96875 202.335938 129.078125 202.441406 129.1875 C 203.304688 127.535156 203.609375 125.84375 203.328125 124.230469 C 203.253906 123.808594 203.136719 123.394531 202.988281 122.992188 C 200.597656 121.035156 197.335938 120.820312 194.949219 124.078125 Z M 194.945312 124.078125 "/>
<path fill-rule="nonzero" fill="rgb(51.371765%, 22.3526%, 12.940979%)" fill-opacity="1" d="M 198.855469 123.429688 C 200.269531 123.429688 200.59375 123.753906 201.246094 124.296875 C 201.898438 124.839844 202.222656 124.730469 202.332031 124.839844 C 202.441406 124.949219 202.332031 125.273438 202.117188 125.167969 C 201.898438 125.058594 201.464844 124.839844 200.8125 124.296875 C 200.160156 123.753906 199.507812 123.753906 198.855469 123.753906 C 196.902344 123.753906 195.8125 125.382812 195.597656 125.273438 C 195.378906 125.164062 196.683594 123.425781 198.855469 123.425781 Z M 198.855469 123.429688 "/>
<path fill-rule="nonzero" fill="rgb(51.371765%, 22.3526%, 12.940979%)" fill-opacity="1" d="M 198.789062 124.097656 C 197.824219 124.097656 196.902344 124.515625 196.359375 125.386719 C 197.445312 126.363281 199.84375 126.46875 201.476562 125.273438 C 200.769531 124.515625 199.753906 124.097656 198.789062 124.097656 Z M 198.773438 124.320312 C 199.710938 124.304688 200.589844 124.734375 200.710938 125.164062 C 199.625 126.359375 197.890625 126.253906 196.804688 125.386719 C 197.277344 124.625 198.042969 124.335938 198.773438 124.320312 Z M 198.773438 124.320312 "/>
<path fill-rule="nonzero" fill="rgb(51.371765%, 22.3526%, 12.940979%)" fill-opacity="1" d="M 199.898438 125.160156 C 199.898438 125.703125 199.460938 126.144531 198.917969 126.144531 C 198.375 126.144531 197.933594 125.703125 197.933594 125.160156 C 197.933594 124.621094 198.375 124.179688 198.917969 124.179688 C 199.460938 124.179688 199.898438 124.621094 199.898438 125.160156 Z M 199.898438 125.160156 "/>
<path fill-rule="nonzero" fill="rgb(51.371765%, 22.3526%, 12.940979%)" fill-opacity="1" d="M 196.246094 125.816406 C 198.09375 127.230469 199.941406 127.121094 201.027344 126.46875 C 202.113281 125.816406 202.113281 125.601562 201.898438 125.601562 C 201.679688 125.601562 201.464844 125.816406 200.59375 126.253906 C 199.726562 126.6875 198.421875 126.6875 196.25 125.816406 Z M 196.246094 125.816406 "/>
</svg>
