<?xml version="1.0" encoding="UTF-8"?>
<svg xmlns="http://www.w3.org/2000/svg" xmlns:xlink="http://www.w3.org/1999/xlink" width="364.463pt" height="255.118pt" viewBox="0 0 364.463 255.118">
<defs>
<clipPath id="clip-0">
<path clip-rule="nonzero" d="M 0.359375 0 L 363.566406 0 L 363.566406 254.238281 L 0.359375 254.238281 Z M 0.359375 0 "/>
</clipPath>
<clipPath id="clip-1">
<path clip-rule="nonzero" d="M 118 63 L 246 63 L 246 191 L 118 191 Z M 118 63 "/>
</clipPath>
<clipPath id="clip-2">
<path clip-rule="nonzero" d="M 245.371094 127.121094 C 245.371094 162.140625 216.984375 190.527344 181.964844 190.527344 C 146.945312 190.527344 118.554688 162.140625 118.554688 127.121094 C 118.554688 92.101562 146.945312 63.710938 181.964844 63.710938 C 216.984375 63.710938 245.371094 92.101562 245.371094 127.121094 Z M 245.371094 127.121094 "/>
</clipPath>
<clipPath id="clip-3">
<path clip-rule="nonzero" d="M 118 100 L 246 100 L 246 191 L 118 191 Z M 118 100 "/>
</clipPath>
<clipPath id="clip-4">
<path clip-rule="nonzero" d="M 245.371094 127.121094 C 245.371094 162.140625 216.984375 190.527344 181.964844 190.527344 C 146.945312 190.527344 118.554688 162.140625 118.554688 127.121094 C 118.554688 92.101562 146.945312 63.710938 181.964844 63.710938 C 216.984375 63.710938 245.371094 92.101562 245.371094 127.121094 Z M 245.371094 127.121094 "/>
</clipPath>
<clipPath id="clip-5">
<path clip-rule="nonzero" d="M 126 102 L 133 102 L 133 109 L 126 109 Z M 126 102 "/>
</clipPath>
<clipPath id="clip-6">
<path clip-rule="nonzero" d="M 245.371094 127.121094 C 245.371094 162.140625 216.984375 190.527344 181.964844 190.527344 C 146.945312 190.527344 118.554688 162.140625 118.554688 127.121094 C 118.554688 92.101562 146.945312 63.710938 181.964844 63.710938 C 216.984375 63.710938 245.371094 92.101562 245.371094 127.121094 Z M 245.371094 127.121094 "/>
</clipPath>
<clipPath id="clip-7">
<path clip-rule="nonzero" d="M 134 101 L 140 101 L 140 109 L 134 109 Z M 134 101 "/>
</clipPath>
<clipPath id="clip-8">
<path clip-rule="nonzero" d="M 245.371094 127.121094 C 245.371094 162.140625 216.984375 190.527344 181.964844 190.527344 C 146.945312 190.527344 118.554688 162.140625 118.554688 127.121094 C 118.554688 92.101562 146.945312 63.710938 181.964844 63.710938 C 216.984375 63.710938 245.371094 92.101562 245.371094 127.121094 Z M 245.371094 127.121094 "/>
</clipPath>
<clipPath id="clip-9">
<path clip-rule="nonzero" d="M 136 105 L 140 105 L 140 108 L 136 108 Z M 136 105 "/>
</clipPath>
<clipPath id="clip-10">
<path clip-rule="nonzero" d="M 245.371094 127.121094 C 245.371094 162.140625 216.984375 190.527344 181.964844 190.527344 C 146.945312 190.527344 118.554688 162.140625 118.554688 127.121094 C 118.554688 92.101562 146.945312 63.710938 181.964844 63.710938 C 216.984375 63.710938 245.371094 92.101562 245.371094 127.121094 Z M 245.371094 127.121094 "/>
</clipPath>
<clipPath id="clip-11">
<path clip-rule="nonzero" d="M 142 101 L 148 101 L 148 108 L 142 108 Z M 142 101 "/>
</clipPath>
<clipPath id="clip-12">
<path clip-rule="nonzero" d="M 245.371094 127.121094 C 245.371094 162.140625 216.984375 190.527344 181.964844 190.527344 C 146.945312 190.527344 118.554688 162.140625 118.554688 127.121094 C 118.554688 92.101562 146.945312 63.710938 181.964844 63.710938 C 216.984375 63.710938 245.371094 92.101562 245.371094 127.121094 Z M 245.371094 127.121094 "/>
</clipPath>
<clipPath id="clip-13">
<path clip-rule="nonzero" d="M 149 101 L 156 101 L 156 108 L 149 108 Z M 149 101 "/>
</clipPath>
<clipPath id="clip-14">
<path clip-rule="nonzero" d="M 245.371094 127.121094 C 245.371094 162.140625 216.984375 190.527344 181.964844 190.527344 C 146.945312 190.527344 118.554688 162.140625 118.554688 127.121094 C 118.554688 92.101562 146.945312 63.710938 181.964844 63.710938 C 216.984375 63.710938 245.371094 92.101562 245.371094 127.121094 Z M 245.371094 127.121094 "/>
</clipPath>
<clipPath id="clip-15">
<path clip-rule="nonzero" d="M 157 101 L 164 101 L 164 109 L 157 109 Z M 157 101 "/>
</clipPath>
<clipPath id="clip-16">
<path clip-rule="nonzero" d="M 245.371094 127.121094 C 245.371094 162.140625 216.984375 190.527344 181.964844 190.527344 C 146.945312 190.527344 118.554688 162.140625 118.554688 127.121094 C 118.554688 92.101562 146.945312 63.710938 181.964844 63.710938 C 216.984375 63.710938 245.371094 92.101562 245.371094 127.121094 Z M 245.371094 127.121094 "/>
</clipPath>
<clipPath id="clip-17">
<path clip-rule="nonzero" d="M 169 104 L 176 104 L 176 111 L 169 111 Z M 169 104 "/>
</clipPath>
<clipPath id="clip-18">
<path clip-rule="nonzero" d="M 245.371094 127.121094 C 245.371094 162.140625 216.984375 190.527344 181.964844 190.527344 C 146.945312 190.527344 118.554688 162.140625 118.554688 127.121094 C 118.554688 92.101562 146.945312 63.710938 181.964844 63.710938 C 216.984375 63.710938 245.371094 92.101562 245.371094 127.121094 Z M 245.371094 127.121094 "/>
</clipPath>
<clipPath id="clip-19">
<path clip-rule="nonzero" d="M 181 105 L 188 105 L 188 112 L 181 112 Z M 181 105 "/>
</clipPath>
<clipPath id="clip-20">
<path clip-rule="nonzero" d="M 245.371094 127.121094 C 245.371094 162.140625 216.984375 190.527344 181.964844 190.527344 C 146.945312 190.527344 118.554688 162.140625 118.554688 127.121094 C 118.554688 92.101562 146.945312 63.710938 181.964844 63.710938 C 216.984375 63.710938 245.371094 92.101562 245.371094 127.121094 Z M 245.371094 127.121094 "/>
</clipPath>
<clipPath id="clip-21">
<path clip-rule="nonzero" d="M 188 107 L 196 107 L 196 114 L 188 114 Z M 188 107 "/>
</clipPath>
<clipPath id="clip-22">
<path clip-rule="nonzero" d="M 245.371094 127.121094 C 245.371094 162.140625 216.984375 190.527344 181.964844 190.527344 C 146.945312 190.527344 118.554688 162.140625 118.554688 127.121094 C 118.554688 92.101562 146.945312 63.710938 181.964844 63.710938 C 216.984375 63.710938 245.371094 92.101562 245.371094 127.121094 Z M 245.371094 127.121094 "/>
</clipPath>
<clipPath id="clip-23">
<path clip-rule="nonzero" d="M 191 111 L 194 111 L 194 116 L 191 116 Z M 191 111 "/>
</clipPath>
<clipPath id="clip-24">
<path clip-rule="nonzero" d="M 245.371094 127.121094 C 245.371094 162.140625 216.984375 190.527344 181.964844 190.527344 C 146.945312 190.527344 118.554688 162.140625 118.554688 127.121094 C 118.554688 92.101562 146.945312 63.710938 181.964844 63.710938 C 216.984375 63.710938 245.371094 92.101562 245.371094 127.121094 Z M 245.371094 127.121094 "/>
</clipPath>
<clipPath id="clip-25">
<path clip-rule="nonzero" d="M 196 111 L 203 111 L 203 117 L 196 117 Z M 196 111 "/>
</clipPath>
<clipPath id="clip-26">
<path clip-rule="nonzero" d="M 245.371094 127.121094 C 245.371094 162.140625 216.984375 190.527344 181.964844 190.527344 C 146.945312 190.527344 118.554688 162.140625 118.554688 127.121094 C 118.554688 92.101562 146.945312 63.710938 181.964844 63.710938 C 216.984375 63.710938 245.371094 92.101562 245.371094 127.121094 Z M 245.371094 127.121094 "/>
</clipPath>
<clipPath id="clip-27">
<path clip-rule="nonzero" d="M 203 113 L 210 113 L 210 120 L 203 120 Z M 203 113 "/>
</clipPath>
<clipPath id="clip-28">
<path clip-rule="nonzero" d="M 245.371094 127.121094 C 245.371094 162.140625 216.984375 190.527344 181.964844 190.527344 C 146.945312 190.527344 118.554688 162.140625 118.554688 127.121094 C 118.554688 92.101562 146.945312 63.710938 181.964844 63.710938 C 216.984375 63.710938 245.371094 92.101562 245.371094 127.121094 Z M 245.371094 127.121094 "/>
</clipPath>
<clipPath id="clip-29">
<path clip-rule="nonzero" d="M 207 116 L 210 116 L 210 119 L 207 119 Z M 207 116 "/>
</clipPath>
<clipPath id="clip-30">
<path clip-rule="nonzero" d="M 245.371094 127.121094 C 245.371094 162.140625 216.984375 190.527344 181.964844 190.527344 C 146.945312 190.527344 118.554688 162.140625 118.554688 127.121094 C 118.554688 92.101562 146.945312 63.710938 181.964844 63.710938 C 216.984375 63.710938 245.371094 92.101562 245.371094 127.121094 Z M 245.371094 127.121094 "/>
</clipPath>
<clipPath id="clip-31">
<path clip-rule="nonzero" d="M 206 117 L 210 117 L 210 119 L 206 119 Z M 206 117 "/>
</clipPath>
<clipPath id="clip-32">
<path clip-rule="nonzero" d="M 245.371094 127.121094 C 245.371094 162.140625 216.984375 190.527344 181.964844 190.527344 C 146.945312 190.527344 118.554688 162.140625 118.554688 127.121094 C 118.554688 92.101562 146.945312 63.710938 181.964844 63.710938 C 216.984375 63.710938 245.371094 92.101562 245.371094 127.121094 Z M 245.371094 127.121094 "/>
</clipPath>
<clipPath id="clip-33">
<path clip-rule="nonzero" d="M 207 117 L 210 117 L 210 121 L 207 121 Z M 207 117 "/>
</clipPath>
<clipPath id="clip-34">
<path clip-rule="nonzero" d="M 245.371094 127.121094 C 245.371094 162.140625 216.984375 190.527344 181.964844 190.527344 C 146.945312 190.527344 118.554688 162.140625 118.554688 127.121094 C 118.554688 92.101562 146.945312 63.710938 181.964844 63.710938 C 216.984375 63.710938 245.371094 92.101562 245.371094 127.121094 Z M 245.371094 127.121094 "/>
</clipPath>
<clipPath id="clip-35">
<path clip-rule="nonzero" d="M 210 116 L 217 116 L 217 123 L 210 123 Z M 210 116 "/>
</clipPath>
<clipPath id="clip-36">
<path clip-rule="nonzero" d="M 245.371094 127.121094 C 245.371094 162.140625 216.984375 190.527344 181.964844 190.527344 C 146.945312 190.527344 118.554688 162.140625 118.554688 127.121094 C 118.554688 92.101562 146.945312 63.710938 181.964844 63.710938 C 216.984375 63.710938 245.371094 92.101562 245.371094 127.121094 Z M 245.371094 127.121094 "/>
</clipPath>
<clipPath id="clip-37">
<path clip-rule="nonzero" d="M 213 120 L 216 120 L 216 124 L 213 124 Z M 213 120 "/>
</clipPath>
<clipPath id="clip-38">
<path clip-rule="nonzero" d="M 245.371094 127.121094 C 245.371094 162.140625 216.984375 190.527344 181.964844 190.527344 C 146.945312 190.527344 118.554688 162.140625 118.554688 127.121094 C 118.554688 92.101562 146.945312 63.710938 181.964844 63.710938 C 216.984375 63.710938 245.371094 92.101562 245.371094 127.121094 Z M 245.371094 127.121094 "/>
</clipPath>
<clipPath id="clip-39">
<path clip-rule="nonzero" d="M 216 119 L 225 119 L 225 128 L 216 128 Z M 216 119 "/>
</clipPath>
<clipPath id="clip-40">
<path clip-rule="nonzero" d="M 245.371094 127.121094 C 245.371094 162.140625 216.984375 190.527344 181.964844 190.527344 C 146.945312 190.527344 118.554688 162.140625 118.554688 127.121094 C 118.554688 92.101562 146.945312 63.710938 181.964844 63.710938 C 216.984375 63.710938 245.371094 92.101562 245.371094 127.121094 Z M 245.371094 127.121094 "/>
</clipPath>
<clipPath id="clip-41">
<path clip-rule="nonzero" d="M 224 124 L 231 124 L 231 132 L 224 132 Z M 224 124 "/>
</clipPath>
<clipPath id="clip-42">
<path clip-rule="nonzero" d="M 245.371094 127.121094 C 245.371094 162.140625 216.984375 190.527344 181.964844 190.527344 C 146.945312 190.527344 118.554688 162.140625 118.554688 127.121094 C 118.554688 92.101562 146.945312 63.710938 181.964844 63.710938 C 216.984375 63.710938 245.371094 92.101562 245.371094 127.121094 Z M 245.371094 127.121094 "/>
</clipPath>
<clipPath id="clip-43">
<path clip-rule="nonzero" d="M 230 129 L 237 129 L 237 136 L 230 136 Z M 230 129 "/>
</clipPath>
<clipPath id="clip-44">
<path clip-rule="nonzero" d="M 245.371094 127.121094 C 245.371094 162.140625 216.984375 190.527344 181.964844 190.527344 C 146.945312 190.527344 118.554688 162.140625 118.554688 127.121094 C 118.554688 92.101562 146.945312 63.710938 181.964844 63.710938 C 216.984375 63.710938 245.371094 92.101562 245.371094 127.121094 Z M 245.371094 127.121094 "/>
</clipPath>
<clipPath id="clip-45">
<path clip-rule="nonzero" d="M 237 134 L 243 134 L 243 140 L 237 140 Z M 237 134 "/>
</clipPath>
<clipPath id="clip-46">
<path clip-rule="nonzero" d="M 245.371094 127.121094 C 245.371094 162.140625 216.984375 190.527344 181.964844 190.527344 C 146.945312 190.527344 118.554688 162.140625 118.554688 127.121094 C 118.554688 92.101562 146.945312 63.710938 181.964844 63.710938 C 216.984375 63.710938 245.371094 92.101562 245.371094 127.121094 Z M 245.371094 127.121094 "/>
</clipPath>
<clipPath id="clip-47">
<path clip-rule="nonzero" d="M 127 113 L 134 113 L 134 118 L 127 118 Z M 127 113 "/>
</clipPath>
<clipPath id="clip-48">
<path clip-rule="nonzero" d="M 245.371094 127.121094 C 245.371094 162.140625 216.984375 190.527344 181.964844 190.527344 C 146.945312 190.527344 118.554688 162.140625 118.554688 127.121094 C 118.554688 92.101562 146.945312 63.710938 181.964844 63.710938 C 216.984375 63.710938 245.371094 92.101562 245.371094 127.121094 Z M 245.371094 127.121094 "/>
</clipPath>
<clipPath id="clip-49">
<path clip-rule="nonzero" d="M 133 139 L 139 139 L 139 145 L 133 145 Z M 133 139 "/>
</clipPath>
<clipPath id="clip-50">
<path clip-rule="nonzero" d="M 245.371094 127.121094 C 245.371094 162.140625 216.984375 190.527344 181.964844 190.527344 C 146.945312 190.527344 118.554688 162.140625 118.554688 127.121094 C 118.554688 92.101562 146.945312 63.710938 181.964844 63.710938 C 216.984375 63.710938 245.371094 92.101562 245.371094 127.121094 Z M 245.371094 127.121094 "/>
</clipPath>
<clipPath id="clip-51">
<path clip-rule="nonzero" d="M 126 145 L 131 145 L 131 150 L 126 150 Z M 126 145 "/>
</clipPath>
<clipPath id="clip-52">
<path clip-rule="nonzero" d="M 245.371094 127.121094 C 245.371094 162.140625 216.984375 190.527344 181.964844 190.527344 C 146.945312 190.527344 118.554688 162.140625 118.554688 127.121094 C 118.554688 92.101562 146.945312 63.710938 181.964844 63.710938 C 216.984375 63.710938 245.371094 92.101562 245.371094 127.121094 Z M 245.371094 127.121094 "/>
</clipPath>
<clipPath id="clip-53">
<path clip-rule="nonzero" d="M 141 137 L 144 137 L 144 140 L 141 140 Z M 141 137 "/>
</clipPath>
<clipPath id="clip-54">
<path clip-rule="nonzero" d="M 245.371094 127.121094 C 245.371094 162.140625 216.984375 190.527344 181.964844 190.527344 C 146.945312 190.527344 118.554688 162.140625 118.554688 127.121094 C 118.554688 92.101562 146.945312 63.710938 181.964844 63.710938 C 216.984375 63.710938 245.371094 92.101562 245.371094 127.121094 Z M 245.371094 127.121094 "/>
</clipPath>
<clipPath id="clip-55">
<path clip-rule="nonzero" d="M 147 146 L 152 146 L 152 151 L 147 151 Z M 147 146 "/>
</clipPath>
<clipPath id="clip-56">
<path clip-rule="nonzero" d="M 245.371094 127.121094 C 245.371094 162.140625 216.984375 190.527344 181.964844 190.527344 C 146.945312 190.527344 118.554688 162.140625 118.554688 127.121094 C 118.554688 92.101562 146.945312 63.710938 181.964844 63.710938 C 216.984375 63.710938 245.371094 92.101562 245.371094 127.121094 Z M 245.371094 127.121094 "/>
</clipPath>
<clipPath id="clip-57">
<path clip-rule="nonzero" d="M 145 153 L 150 153 L 150 157 L 145 157 Z M 145 153 "/>
</clipPath>
<clipPath id="clip-58">
<path clip-rule="nonzero" d="M 245.371094 127.121094 C 245.371094 162.140625 216.984375 190.527344 181.964844 190.527344 C 146.945312 190.527344 118.554688 162.140625 118.554688 127.121094 C 118.554688 92.101562 146.945312 63.710938 181.964844 63.710938 C 216.984375 63.710938 245.371094 92.101562 245.371094 127.121094 Z M 245.371094 127.121094 "/>
</clipPath>
<clipPath id="clip-59">
<path clip-rule="nonzero" d="M 198 104 L 205 104 L 205 110 L 198 110 Z M 198 104 "/>
</clipPath>
<clipPath id="clip-60">
<path clip-rule="nonzero" d="M 245.371094 127.121094 C 245.371094 162.140625 216.984375 190.527344 181.964844 190.527344 C 146.945312 190.527344 118.554688 162.140625 118.554688 127.121094 C 118.554688 92.101562 146.945312 63.710938 181.964844 63.710938 C 216.984375 63.710938 245.371094 92.101562 245.371094 127.121094 Z M 245.371094 127.121094 "/>
</clipPath>
<clipPath id="clip-61">
<path clip-rule="nonzero" d="M 223 146 L 229 146 L 229 152 L 223 152 Z M 223 146 "/>
</clipPath>
<clipPath id="clip-62">
<path clip-rule="nonzero" d="M 245.371094 127.121094 C 245.371094 162.140625 216.984375 190.527344 181.964844 190.527344 C 146.945312 190.527344 118.554688 162.140625 118.554688 127.121094 C 118.554688 92.101562 146.945312 63.710938 181.964844 63.710938 C 216.984375 63.710938 245.371094 92.101562 245.371094 127.121094 Z M 245.371094 127.121094 "/>
</clipPath>
<clipPath id="clip-63">
<path clip-rule="nonzero" d="M 233 148 L 237 148 L 237 152 L 233 152 Z M 233 148 "/>
</clipPath>
<clipPath id="clip-64">
<path clip-rule="nonzero" d="M 245.371094 127.121094 C 245.371094 162.140625 216.984375 190.527344 181.964844 190.527344 C 146.945312 190.527344 118.554688 162.140625 118.554688 127.121094 C 118.554688 92.101562 146.945312 63.710938 181.964844 63.710938 C 216.984375 63.710938 245.371094 92.101562 245.371094 127.121094 Z M 245.371094 127.121094 "/>
</clipPath>
<clipPath id="clip-65">
<path clip-rule="nonzero" d="M 226 152 L 231 152 L 231 157 L 226 157 Z M 226 152 "/>
</clipPath>
<clipPath id="clip-66">
<path clip-rule="nonzero" d="M 245.371094 127.121094 C 245.371094 162.140625 216.984375 190.527344 181.964844 190.527344 C 146.945312 190.527344 118.554688 162.140625 118.554688 127.121094 C 118.554688 92.101562 146.945312 63.710938 181.964844 63.710938 C 216.984375 63.710938 245.371094 92.101562 245.371094 127.121094 Z M 245.371094 127.121094 "/>
</clipPath>
<clipPath id="clip-67">
<path clip-rule="nonzero" d="M 211 165 L 216 165 L 216 170 L 211 170 Z M 211 165 "/>
</clipPath>
<clipPath id="clip-68">
<path clip-rule="nonzero" d="M 245.371094 127.121094 C 245.371094 162.140625 216.984375 190.527344 181.964844 190.527344 C 146.945312 190.527344 118.554688 162.140625 118.554688 127.121094 C 118.554688 92.101562 146.945312 63.710938 181.964844 63.710938 C 216.984375 63.710938 245.371094 92.101562 245.371094 127.121094 Z M 245.371094 127.121094 "/>
</clipPath>
<clipPath id="clip-69">
<path clip-rule="nonzero" d="M 211 172 L 216 172 L 216 176 L 211 176 Z M 211 172 "/>
</clipPath>
<clipPath id="clip-70">
<path clip-rule="nonzero" d="M 245.371094 127.121094 C 245.371094 162.140625 216.984375 190.527344 181.964844 190.527344 C 146.945312 190.527344 118.554688 162.140625 118.554688 127.121094 C 118.554688 92.101562 146.945312 63.710938 181.964844 63.710938 C 216.984375 63.710938 245.371094 92.101562 245.371094 127.121094 Z M 245.371094 127.121094 "/>
</clipPath>
<clipPath id="clip-71">
<path clip-rule="nonzero" d="M 218 161 L 222 161 L 222 165 L 218 165 Z M 218 161 "/>
</clipPath>
<clipPath id="clip-72">
<path clip-rule="nonzero" d="M 245.371094 127.121094 C 245.371094 162.140625 216.984375 190.527344 181.964844 190.527344 C 146.945312 190.527344 118.554688 162.140625 118.554688 127.121094 C 118.554688 92.101562 146.945312 63.710938 181.964844 63.710938 C 216.984375 63.710938 245.371094 92.101562 245.371094 127.121094 Z M 245.371094 127.121094 "/>
</clipPath>
<clipPath id="clip-73">
<path clip-rule="nonzero" d="M 222 157 L 228 157 L 228 162 L 222 162 Z M 222 157 "/>
</clipPath>
<clipPath id="clip-74">
<path clip-rule="nonzero" d="M 245.371094 127.121094 C 245.371094 162.140625 216.984375 190.527344 181.964844 190.527344 C 146.945312 190.527344 118.554688 162.140625 118.554688 127.121094 C 118.554688 92.101562 146.945312 63.710938 181.964844 63.710938 C 216.984375 63.710938 245.371094 92.101562 245.371094 127.121094 Z M 245.371094 127.121094 "/>
</clipPath>
<clipPath id="clip-75">
<path clip-rule="nonzero" d="M 211 160 L 215 160 L 215 164 L 211 164 Z M 211 160 "/>
</clipPath>
<clipPath id="clip-76">
<path clip-rule="nonzero" d="M 245.371094 127.121094 C 245.371094 162.140625 216.984375 190.527344 181.964844 190.527344 C 146.945312 190.527344 118.554688 162.140625 118.554688 127.121094 C 118.554688 92.101562 146.945312 63.710938 181.964844 63.710938 C 216.984375 63.710938 245.371094 92.101562 245.371094 127.121094 Z M 245.371094 127.121094 "/>
</clipPath>
<clipPath id="clip-77">
<path clip-rule="nonzero" d="M 155 127 L 161 127 L 161 132 L 155 132 Z M 155 127 "/>
</clipPath>
<clipPath id="clip-78">
<path clip-rule="nonzero" d="M 245.371094 127.121094 C 245.371094 162.140625 216.984375 190.527344 181.964844 190.527344 C 146.945312 190.527344 118.554688 162.140625 118.554688 127.121094 C 118.554688 92.101562 146.945312 63.710938 181.964844 63.710938 C 216.984375 63.710938 245.371094 92.101562 245.371094 127.121094 Z M 245.371094 127.121094 "/>
</clipPath>
<clipPath id="clip-79">
<path clip-rule="nonzero" d="M 197 122 L 201 122 L 201 126 L 197 126 Z M 197 122 "/>
</clipPath>
<clipPath id="clip-80">
<path clip-rule="nonzero" d="M 245.371094 127.121094 C 245.371094 162.140625 216.984375 190.527344 181.964844 190.527344 C 146.945312 190.527344 118.554688 162.140625 118.554688 127.121094 C 118.554688 92.101562 146.945312 63.710938 181.964844 63.710938 C 216.984375 63.710938 245.371094 92.101562 245.371094 127.121094 Z M 245.371094 127.121094 "/>
</clipPath>
<clipPath id="clip-81">
<path clip-rule="nonzero" d="M 179 152 L 185 152 L 185 158 L 179 158 Z M 179 152 "/>
</clipPath>
<clipPath id="clip-82">
<path clip-rule="nonzero" d="M 245.371094 127.121094 C 245.371094 162.140625 216.984375 190.527344 181.964844 190.527344 C 146.945312 190.527344 118.554688 162.140625 118.554688 127.121094 C 118.554688 92.101562 146.945312 63.710938 181.964844 63.710938 C 216.984375 63.710938 245.371094 92.101562 245.371094 127.121094 Z M 245.371094 127.121094 "/>
</clipPath>
<clipPath id="clip-83">
<path clip-rule="nonzero" d="M 187 140 L 192 140 L 192 145 L 187 145 Z M 187 140 "/>
</clipPath>
<clipPath id="clip-84">
<path clip-rule="nonzero" d="M 245.371094 127.121094 C 245.371094 162.140625 216.984375 190.527344 181.964844 190.527344 C 146.945312 190.527344 118.554688 162.140625 118.554688 127.121094 C 118.554688 92.101562 146.945312 63.710938 181.964844 63.710938 C 216.984375 63.710938 245.371094 92.101562 245.371094 127.121094 Z M 245.371094 127.121094 "/>
</clipPath>
<clipPath id="clip-85">
<path clip-rule="nonzero" d="M 179 134 L 185 134 L 185 140 L 179 140 Z M 179 134 "/>
</clipPath>
<clipPath id="clip-86">
<path clip-rule="nonzero" d="M 245.371094 127.121094 C 245.371094 162.140625 216.984375 190.527344 181.964844 190.527344 C 146.945312 190.527344 118.554688 162.140625 118.554688 127.121094 C 118.554688 92.101562 146.945312 63.710938 181.964844 63.710938 C 216.984375 63.710938 245.371094 92.101562 245.371094 127.121094 Z M 245.371094 127.121094 "/>
</clipPath>
<clipPath id="clip-87">
<path clip-rule="nonzero" d="M 173 141 L 178 141 L 178 145 L 173 145 Z M 173 141 "/>
</clipPath>
<clipPath id="clip-88">
<path clip-rule="nonzero" d="M 245.371094 127.121094 C 245.371094 162.140625 216.984375 190.527344 181.964844 190.527344 C 146.945312 190.527344 118.554688 162.140625 118.554688 127.121094 C 118.554688 92.101562 146.945312 63.710938 181.964844 63.710938 C 216.984375 63.710938 245.371094 92.101562 245.371094 127.121094 Z M 245.371094 127.121094 "/>
</clipPath>
<clipPath id="clip-89">
<path clip-rule="nonzero" d="M 177 146 L 181 146 L 181 149 L 177 149 Z M 177 146 "/>
</clipPath>
<clipPath id="clip-90">
<path clip-rule="nonzero" d="M 245.371094 127.121094 C 245.371094 162.140625 216.984375 190.527344 181.964844 190.527344 C 146.945312 190.527344 118.554688 162.140625 118.554688 127.121094 C 118.554688 92.101562 146.945312 63.710938 181.964844 63.710938 C 216.984375 63.710938 245.371094 92.101562 245.371094 127.121094 Z M 245.371094 127.121094 "/>
</clipPath>
<clipPath id="clip-91">
<path clip-rule="nonzero" d="M 198 167 L 203 167 L 203 172 L 198 172 Z M 198 167 "/>
</clipPath>
<clipPath id="clip-92">
<path clip-rule="nonzero" d="M 245.371094 127.121094 C 245.371094 162.140625 216.984375 190.527344 181.964844 190.527344 C 146.945312 190.527344 118.554688 162.140625 118.554688 127.121094 C 118.554688 92.101562 146.945312 63.710938 181.964844 63.710938 C 216.984375 63.710938 245.371094 92.101562 245.371094 127.121094 Z M 245.371094 127.121094 "/>
</clipPath>
<clipPath id="clip-93">
<path clip-rule="nonzero" d="M 204 162 L 208 162 L 208 166 L 204 166 Z M 204 162 "/>
</clipPath>
<clipPath id="clip-94">
<path clip-rule="nonzero" d="M 245.371094 127.121094 C 245.371094 162.140625 216.984375 190.527344 181.964844 190.527344 C 146.945312 190.527344 118.554688 162.140625 118.554688 127.121094 C 118.554688 92.101562 146.945312 63.710938 181.964844 63.710938 C 216.984375 63.710938 245.371094 92.101562 245.371094 127.121094 Z M 245.371094 127.121094 "/>
</clipPath>
<clipPath id="clip-95">
<path clip-rule="nonzero" d="M 194 160 L 198 160 L 198 164 L 194 164 Z M 194 160 "/>
</clipPath>
<clipPath id="clip-96">
<path clip-rule="nonzero" d="M 245.371094 127.121094 C 245.371094 162.140625 216.984375 190.527344 181.964844 190.527344 C 146.945312 190.527344 118.554688 162.140625 118.554688 127.121094 C 118.554688 92.101562 146.945312 63.710938 181.964844 63.710938 C 216.984375 63.710938 245.371094 92.101562 245.371094 127.121094 Z M 245.371094 127.121094 "/>
</clipPath>
<clipPath id="clip-97">
<path clip-rule="nonzero" d="M 154 157 L 160 157 L 160 163 L 154 163 Z M 154 157 "/>
</clipPath>
<clipPath id="clip-98">
<path clip-rule="nonzero" d="M 245.371094 127.121094 C 245.371094 162.140625 216.984375 190.527344 181.964844 190.527344 C 146.945312 190.527344 118.554688 162.140625 118.554688 127.121094 C 118.554688 92.101562 146.945312 63.710938 181.964844 63.710938 C 216.984375 63.710938 245.371094 92.101562 245.371094 127.121094 Z M 245.371094 127.121094 "/>
</clipPath>
<clipPath id="clip-99">
<path clip-rule="nonzero" d="M 181 175 L 183 175 L 183 178 L 181 178 Z M 181 175 "/>
</clipPath>
<clipPath id="clip-100">
<path clip-rule="nonzero" d="M 245.371094 127.121094 C 245.371094 162.140625 216.984375 190.527344 181.964844 190.527344 C 146.945312 190.527344 118.554688 162.140625 118.554688 127.121094 C 118.554688 92.101562 146.945312 63.710938 181.964844 63.710938 C 216.984375 63.710938 245.371094 92.101562 245.371094 127.121094 Z M 245.371094 127.121094 "/>
</clipPath>
</defs>
<g clip-path="url(#clip-0)">
<path fill-rule="nonzero" fill="rgb(0%, 58.822632%, 22.3526%)" fill-opacity="1" d="M 0.359375 254.242188 L 0.359375 0 L 363.570312 0 L 363.570312 254.242188 Z M 0.359375 254.242188 "/>
</g>
<path fill-rule="nonzero" fill="rgb(99.607849%, 86.66687%, 0%)" fill-opacity="1" d="M 181.964844 223.375 L 332.703125 127.121094 L 181.964844 30.863281 L 31.222656 127.121094 Z M 181.964844 223.375 "/>
<g clip-path="url(#clip-1)">
<g clip-path="url(#clip-2)">
<path fill-rule="nonzero" fill="rgb(0%, 15.293884%, 46.273804%)" fill-opacity="1" d="M 245.371094 127.121094 C 245.371094 162.140625 216.984375 190.527344 181.964844 190.527344 C 146.945312 190.527344 118.554688 162.140625 118.554688 127.121094 C 118.554688 92.101562 146.945312 63.710938 181.964844 63.710938 C 216.984375 63.710938 245.371094 92.101562 245.371094 127.121094 Z M 245.371094 127.121094 "/>
</g>
</g>
<g clip-path="url(#clip-3)">
<g clip-path="url(#clip-4)">
<path fill-rule="nonzero" fill="rgb(100%, 100%, 100%)" fill-opacity="1" d="M -7.269531 253.273438 C -7.269531 168.671875 61.3125 100.085938 145.917969 100.085938 C 230.523438 100.085938 299.109375 168.671875 299.109375 253.273438 L 290.097656 253.273438 C 290.097656 173.648438 225.546875 109.097656 145.917969 109.097656 C 66.292969 109.097656 1.742188 173.648438 1.742188 253.273438 Z M -7.269531 253.273438 "/>
</g>
</g>
<g clip-path="url(#clip-5)">
<g clip-path="url(#clip-6)">
<path fill-rule="evenodd" fill="rgb(0%, 60.78186%, 22.744751%)" fill-opacity="1" d="M 129.730469 108.6875 C 131.210938 108.503906 132.25 107.023438 132.046875 105.375 C 131.84375 103.730469 130.480469 102.542969 129 102.722656 C 127.515625 102.90625 126.480469 104.386719 126.679688 106.035156 C 126.882812 107.679688 128.246094 108.867188 129.730469 108.6875 M 129.59375 107.578125 C 130.464844 107.472656 131.066406 106.546875 130.941406 105.511719 C 130.8125 104.476562 130.003906 103.722656 129.132812 103.832031 C 128.265625 103.9375 127.660156 104.863281 127.789062 105.898438 C 127.914062 106.933594 128.722656 107.683594 129.59375 107.578125 "/>
</g>
</g>
<g clip-path="url(#clip-7)">
<g clip-path="url(#clip-8)">
<path fill-rule="evenodd" fill="rgb(0%, 60.78186%, 22.744751%)" fill-opacity="1" d="M 134.625 108.152344 L 135.738281 108.078125 L 135.582031 105.851562 L 137.980469 105.683594 C 139.019531 105.609375 139.804688 104.707031 139.730469 103.667969 C 139.660156 102.628906 138.757812 101.84375 137.714844 101.917969 L 134.292969 102.15625 Z M 135.503906 104.738281 L 137.816406 104.578125 C 138.242188 104.546875 138.5625 104.179688 138.53125 103.753906 C 138.503906 103.328125 138.132812 103.007812 137.707031 103.035156 L 135.398438 103.195312 Z M 135.503906 104.738281 "/>
</g>
</g>
<g clip-path="url(#clip-9)">
<g clip-path="url(#clip-10)">
<path fill-rule="nonzero" fill="rgb(0%, 60.78186%, 22.744751%)" fill-opacity="1" d="M 139.71875 107.796875 C 139.660156 106.941406 139.527344 105.058594 138.242188 105.148438 L 136.617188 105.261719 C 138.5 105.132812 138.632812 107.015625 138.691406 107.871094 "/>
</g>
</g>
<g clip-path="url(#clip-11)">
<g clip-path="url(#clip-12)">
<path fill-rule="evenodd" fill="rgb(0%, 60.78186%, 22.744751%)" fill-opacity="1" d="M 142.230469 107.683594 L 145.0625 107.632812 C 146.484375 107.609375 147.617188 106.4375 147.589844 105.015625 L 147.578125 104.15625 C 147.550781 102.738281 146.378906 101.605469 144.957031 101.628906 L 142.125 101.679688 Z M 143.328125 106.550781 L 144.957031 106.519531 C 145.855469 106.503906 146.574219 105.761719 146.558594 104.863281 L 146.550781 104.347656 C 146.535156 103.445312 145.792969 102.730469 144.890625 102.746094 L 143.261719 102.773438 Z M 143.328125 106.550781 "/>
</g>
</g>
<g clip-path="url(#clip-13)">
<g clip-path="url(#clip-14)">
<path fill-rule="nonzero" fill="rgb(0%, 60.78186%, 22.744751%)" fill-opacity="1" d="M 149.84375 107.605469 L 155.246094 107.792969 L 155.285156 106.679688 L 150.910156 106.523438 L 150.964844 104.980469 L 154.394531 105.101562 L 154.433594 104.070312 L 151 103.953125 L 151.042969 102.75 L 155.160156 102.894531 L 155.199219 101.78125 L 150.054688 101.601562 Z M 149.84375 107.605469 "/>
</g>
</g>
<g clip-path="url(#clip-15)">
<g clip-path="url(#clip-16)">
<path fill-rule="nonzero" fill="rgb(0%, 60.78186%, 22.744751%)" fill-opacity="1" d="M 157.464844 107.9375 L 158.492188 108.027344 L 158.851562 103.921875 L 159.6875 108.128906 L 160.628906 108.210938 L 162.183594 104.214844 L 161.824219 108.316406 L 162.851562 108.40625 L 163.375 102.421875 L 161.878906 102.292969 L 160.320312 106.289062 L 159.484375 102.082031 L 157.988281 101.953125 Z M 157.464844 107.9375 "/>
</g>
</g>
<g clip-path="url(#clip-17)">
<g clip-path="url(#clip-18)">
<path fill-rule="nonzero" fill="rgb(0%, 60.78186%, 22.744751%)" fill-opacity="1" d="M 169.910156 109.332031 L 174.351562 110.097656 L 174.527344 109.082031 L 171.101562 108.492188 L 171.332031 107.140625 L 174.125 107.617188 L 174.296875 106.605469 L 171.507812 106.125 L 171.667969 105.195312 L 174.988281 105.765625 L 175.160156 104.75 L 170.828125 104.003906 Z M 169.910156 109.332031 "/>
</g>
</g>
<g clip-path="url(#clip-19)">
<g clip-path="url(#clip-20)">
<path fill-rule="evenodd" fill="rgb(0%, 60.78186%, 22.744751%)" fill-opacity="1" d="M 181.300781 111.570312 L 182.382812 111.847656 L 182.941406 109.6875 L 185.265625 110.289062 C 186.277344 110.550781 187.304688 109.941406 187.566406 108.933594 C 187.828125 107.925781 187.222656 106.894531 186.210938 106.632812 L 182.890625 105.773438 Z M 183.21875 108.609375 L 185.464844 109.1875 C 185.875 109.292969 186.296875 109.046875 186.40625 108.632812 C 186.511719 108.21875 186.261719 107.796875 185.851562 107.691406 L 183.605469 107.113281 Z M 183.21875 108.609375 "/>
</g>
</g>
<g clip-path="url(#clip-21)">
<g clip-path="url(#clip-22)">
<path fill-rule="evenodd" fill="rgb(0%, 60.78186%, 22.744751%)" fill-opacity="1" d="M 188.6875 113.550781 L 189.75 113.886719 L 190.421875 111.757812 L 192.710938 112.480469 C 193.707031 112.796875 194.765625 112.242188 195.082031 111.25 C 195.394531 110.253906 194.84375 109.195312 193.847656 108.882812 L 190.574219 107.847656 Z M 190.757812 110.695312 L 192.964844 111.390625 C 193.371094 111.519531 193.804688 111.292969 193.933594 110.886719 C 194.0625 110.480469 193.835938 110.046875 193.429688 109.917969 L 191.222656 109.222656 Z M 190.757812 110.695312 "/>
</g>
</g>
<g clip-path="url(#clip-23)">
<g clip-path="url(#clip-24)">
<path fill-rule="nonzero" fill="rgb(0%, 60.78186%, 22.744751%)" fill-opacity="1" d="M 193.554688 115.085938 C 193.8125 114.269531 194.382812 112.46875 193.152344 112.082031 L 191.597656 111.589844 C 193.398438 112.160156 192.832031 113.957031 192.574219 114.777344 "/>
</g>
</g>
<g clip-path="url(#clip-25)">
<g clip-path="url(#clip-26)">
<path fill-rule="evenodd" fill="rgb(0%, 60.78186%, 22.744751%)" fill-opacity="1" d="M 198.464844 116.832031 C 199.863281 117.355469 201.46875 116.519531 202.046875 114.964844 C 202.628906 113.414062 201.964844 111.730469 200.566406 111.207031 C 199.167969 110.683594 197.566406 111.519531 196.984375 113.074219 C 196.402344 114.628906 197.066406 116.308594 198.464844 116.832031 M 198.855469 115.789062 C 199.675781 116.09375 200.636719 115.550781 201.003906 114.574219 C 201.367188 113.597656 201 112.558594 200.175781 112.25 C 199.355469 111.945312 198.394531 112.488281 198.03125 113.464844 C 197.664062 114.441406 198.035156 115.480469 198.855469 115.789062 "/>
</g>
</g>
<g clip-path="url(#clip-27)">
<g clip-path="url(#clip-28)">
<path fill-rule="evenodd" fill="rgb(0%, 60.78186%, 22.744751%)" fill-opacity="1" d="M 205.542969 119.691406 C 206.910156 120.289062 208.558594 119.539062 209.21875 118.015625 C 209.878906 116.496094 209.304688 114.777344 207.9375 114.183594 C 206.566406 113.589844 204.921875 114.339844 204.261719 115.859375 C 203.597656 117.382812 204.171875 119.097656 205.542969 119.691406 M 205.988281 118.667969 C 206.789062 119.019531 207.78125 118.527344 208.195312 117.570312 C 208.609375 116.613281 208.296875 115.554688 207.492188 115.207031 C 206.6875 114.859375 205.699219 115.347656 205.285156 116.304688 C 204.867188 117.261719 205.183594 118.320312 205.988281 118.667969 "/>
</g>
</g>
<g clip-path="url(#clip-29)">
<g clip-path="url(#clip-30)">
<path fill-rule="nonzero" fill="rgb(100%, 100%, 100%)" fill-opacity="1" d="M 207.132812 117.109375 L 207.476562 116.324219 L 209.640625 117.261719 L 209.296875 118.050781 Z M 207.132812 117.109375 "/>
</g>
</g>
<g clip-path="url(#clip-31)">
<g clip-path="url(#clip-32)">
<path fill-rule="nonzero" fill="rgb(0%, 60.78186%, 22.744751%)" fill-opacity="1" d="M 207.132812 117.109375 L 206.789062 117.894531 L 208.875 118.804688 L 209.21875 118.015625 Z M 207.132812 117.109375 "/>
</g>
</g>
<g clip-path="url(#clip-33)">
<g clip-path="url(#clip-34)">
<path fill-rule="nonzero" fill="rgb(0%, 60.78186%, 22.744751%)" fill-opacity="1" d="M 208.429688 117.675781 L 207.234375 120.429688 L 208.019531 120.769531 L 209.21875 118.015625 Z M 208.429688 117.675781 "/>
</g>
</g>
<g clip-path="url(#clip-35)">
<g clip-path="url(#clip-36)">
<path fill-rule="evenodd" fill="rgb(0%, 60.78186%, 22.744751%)" fill-opacity="1" d="M 210.035156 121.714844 L 211.035156 122.214844 L 212.03125 120.21875 L 214.179688 121.289062 C 215.113281 121.753906 216.246094 121.375 216.710938 120.441406 C 217.175781 119.507812 216.796875 118.375 215.863281 117.910156 L 212.792969 116.378906 Z M 212.527344 119.21875 L 214.601562 120.253906 C 214.980469 120.445312 215.445312 120.289062 215.636719 119.90625 C 215.828125 119.523438 215.671875 119.0625 215.289062 118.871094 L 213.214844 117.835938 Z M 212.527344 119.21875 "/>
</g>
</g>
<g clip-path="url(#clip-37)">
<g clip-path="url(#clip-38)">
<path fill-rule="nonzero" fill="rgb(0%, 60.78186%, 22.744751%)" fill-opacity="1" d="M 214.605469 123.996094 C 214.988281 123.226562 215.828125 121.539062 214.679688 120.964844 L 213.21875 120.234375 C 214.910156 121.078125 214.066406 122.765625 213.683594 123.535156 "/>
</g>
</g>
<g clip-path="url(#clip-39)">
<g clip-path="url(#clip-40)">
<path fill-rule="nonzero" fill="rgb(0%, 60.78186%, 22.744751%)" fill-opacity="1" d="M 216.828125 125.171875 L 221.535156 127.832031 L 222.082031 126.863281 L 218.273438 124.707031 L 219.035156 123.363281 L 222.023438 125.054688 L 222.53125 124.15625 L 219.542969 122.46875 L 220.132812 121.421875 L 223.71875 123.449219 L 224.269531 122.480469 L 219.789062 119.945312 Z M 216.828125 125.171875 "/>
</g>
</g>
<g clip-path="url(#clip-41)">
<g clip-path="url(#clip-42)">
<path fill-rule="nonzero" fill="rgb(0%, 60.78186%, 22.744751%)" fill-opacity="1" d="M 225.597656 128.113281 C 225.277344 128.621094 225.601562 129.183594 226.328125 129.644531 C 227.050781 130.105469 227.542969 130.089844 227.75 129.765625 C 228.410156 128.734375 224.609375 127.230469 225.78125 125.433594 C 226.789062 123.886719 228.515625 125.089844 229.167969 125.503906 C 229.820312 125.917969 230.867188 126.992188 230.050781 128.230469 L 228.949219 127.527344 C 229.292969 126.984375 228.914062 126.460938 228.335938 126.09375 C 227.773438 125.734375 227.320312 125.574219 226.984375 126.097656 C 226.425781 126.9375 230.148438 128.519531 229.007812 130.308594 C 228.164062 131.628906 226.703125 131.054688 225.722656 130.433594 C 224.890625 129.902344 223.648438 128.652344 224.460938 127.386719 Z M 225.597656 128.113281 "/>
</g>
</g>
<g clip-path="url(#clip-43)">
<g clip-path="url(#clip-44)">
<path fill-rule="nonzero" fill="rgb(0%, 60.78186%, 22.744751%)" fill-opacity="1" d="M 232.035156 132.367188 C 231.6875 132.859375 231.984375 133.4375 232.683594 133.9375 C 233.382812 134.433594 233.875 134.445312 234.101562 134.128906 C 234.808594 133.136719 231.09375 131.433594 232.359375 129.699219 C 233.449219 128.210938 235.109375 129.5 235.738281 129.949219 C 236.367188 130.398438 237.355469 131.523438 236.476562 132.71875 L 235.414062 131.957031 C 235.785156 131.433594 235.433594 130.894531 234.875 130.492188 C 234.332031 130.109375 233.886719 129.921875 233.527344 130.429688 C 232.921875 131.234375 236.558594 133.011719 235.324219 134.742188 C 234.414062 136.015625 232.984375 135.363281 232.039062 134.691406 C 231.238281 134.117188 230.0625 132.804688 230.9375 131.585938 Z M 232.035156 132.367188 "/>
</g>
</g>
<g clip-path="url(#clip-45)">
<g clip-path="url(#clip-46)">
<path fill-rule="evenodd" fill="rgb(0%, 60.78186%, 22.744751%)" fill-opacity="1" d="M 238.128906 139.277344 C 239.296875 140.207031 241.082031 139.910156 242.113281 138.609375 C 243.148438 137.3125 243.039062 135.507812 241.867188 134.578125 C 240.699219 133.648438 238.917969 133.949219 237.882812 135.246094 C 236.851562 136.542969 236.960938 138.347656 238.128906 139.277344 M 238.824219 138.40625 C 239.511719 138.949219 240.59375 138.730469 241.242188 137.914062 C 241.890625 137.101562 241.859375 135.996094 241.175781 135.449219 C 240.488281 134.90625 239.40625 135.125 238.757812 135.941406 C 238.109375 136.753906 238.136719 137.859375 238.824219 138.40625 "/>
</g>
</g>
<g clip-path="url(#clip-47)">
<g clip-path="url(#clip-48)">
<path fill-rule="nonzero" fill="rgb(100%, 100%, 100%)" fill-opacity="1" d="M 130.472656 113.089844 L 129.863281 114.957031 L 127.902344 114.957031 L 129.488281 116.109375 L 128.882812 117.976562 L 130.472656 116.824219 L 132.058594 117.976562 L 131.453125 116.109375 L 133.042969 114.957031 L 131.078125 114.957031 Z M 130.472656 113.089844 "/>
</g>
</g>
<g clip-path="url(#clip-49)">
<g clip-path="url(#clip-50)">
<path fill-rule="nonzero" fill="rgb(100%, 100%, 100%)" fill-opacity="1" d="M 136.050781 139.605469 L 135.441406 141.472656 L 133.480469 141.472656 L 135.066406 142.628906 L 134.460938 144.496094 L 136.050781 143.34375 L 137.640625 144.496094 L 137.03125 142.628906 L 138.621094 141.472656 L 136.65625 141.472656 Z M 136.050781 139.605469 "/>
</g>
</g>
<g clip-path="url(#clip-51)">
<g clip-path="url(#clip-52)">
<path fill-rule="nonzero" fill="rgb(100%, 100%, 100%)" fill-opacity="1" d="M 128.324219 145.722656 L 127.820312 147.277344 L 126.183594 147.277344 L 127.507812 148.238281 L 127 149.796875 L 128.324219 148.835938 L 129.648438 149.796875 L 129.144531 148.238281 L 130.46875 147.277344 L 128.832031 147.277344 Z M 128.324219 145.722656 "/>
</g>
</g>
<g clip-path="url(#clip-53)">
<g clip-path="url(#clip-54)">
<path fill-rule="nonzero" fill="rgb(100%, 100%, 100%)" fill-opacity="1" d="M 142.230469 137.160156 L 141.941406 138.050781 L 141.003906 138.050781 L 141.761719 138.601562 L 141.472656 139.488281 L 142.230469 138.9375 L 142.984375 139.488281 L 142.695312 138.601562 L 143.453125 138.050781 L 142.519531 138.050781 Z M 142.230469 137.160156 "/>
</g>
</g>
<g clip-path="url(#clip-55)">
<g clip-path="url(#clip-56)">
<path fill-rule="nonzero" fill="rgb(100%, 100%, 100%)" fill-opacity="1" d="M 149.179688 146.320312 L 148.675781 147.878906 L 147.039062 147.878906 L 148.363281 148.839844 L 147.855469 150.398438 L 149.179688 149.433594 L 150.503906 150.398438 L 150 148.839844 L 151.324219 147.878906 L 149.6875 147.878906 Z M 149.179688 146.320312 "/>
</g>
</g>
<g clip-path="url(#clip-57)">
<g clip-path="url(#clip-58)">
<path fill-rule="nonzero" fill="rgb(100%, 100%, 100%)" fill-opacity="1" d="M 147.292969 153.035156 L 146.886719 154.28125 L 145.578125 154.28125 L 146.636719 155.050781 L 146.234375 156.296875 L 147.292969 155.527344 L 148.351562 156.296875 L 147.945312 155.050781 L 149.007812 154.28125 L 147.695312 154.28125 Z M 147.292969 153.035156 "/>
</g>
</g>
<g clip-path="url(#clip-59)">
<g clip-path="url(#clip-60)">
<path fill-rule="nonzero" fill="rgb(100%, 100%, 100%)" fill-opacity="1" d="M 201.53125 104.847656 L 200.921875 106.71875 L 198.960938 106.71875 L 200.546875 107.871094 L 199.941406 109.738281 L 201.53125 108.585938 L 203.121094 109.738281 L 202.511719 107.871094 L 204.101562 106.71875 L 202.136719 106.71875 Z M 201.53125 104.847656 "/>
</g>
</g>
<g clip-path="url(#clip-61)">
<g clip-path="url(#clip-62)">
<path fill-rule="nonzero" fill="rgb(100%, 100%, 100%)" fill-opacity="1" d="M 226.160156 146.558594 L 225.554688 148.425781 L 223.589844 148.425781 L 225.179688 149.582031 L 224.570312 151.449219 L 226.160156 150.292969 L 227.75 151.449219 L 227.144531 149.582031 L 228.730469 148.425781 L 226.765625 148.425781 Z M 226.160156 146.558594 "/>
</g>
</g>
<g clip-path="url(#clip-63)">
<g clip-path="url(#clip-64)">
<path fill-rule="nonzero" fill="rgb(100%, 100%, 100%)" fill-opacity="1" d="M 234.914062 148.058594 L 234.507812 149.304688 L 233.199219 149.304688 L 234.257812 150.074219 L 233.855469 151.320312 L 234.914062 150.550781 L 235.972656 151.320312 L 235.570312 150.074219 L 236.628906 149.304688 L 235.320312 149.304688 Z M 234.914062 148.058594 "/>
</g>
</g>
<g clip-path="url(#clip-65)">
<g clip-path="url(#clip-66)">
<path fill-rule="nonzero" fill="rgb(100%, 100%, 100%)" fill-opacity="1" d="M 228.734375 152.585938 L 228.230469 154.144531 L 226.59375 154.144531 L 227.917969 155.105469 L 227.410156 156.660156 L 228.734375 155.699219 L 230.058594 156.660156 L 229.554688 155.105469 L 230.878906 154.144531 L 229.242188 154.144531 Z M 228.734375 152.585938 "/>
</g>
</g>
<g clip-path="url(#clip-67)">
<g clip-path="url(#clip-68)">
<path fill-rule="nonzero" fill="rgb(100%, 100%, 100%)" fill-opacity="1" d="M 213.546875 165.804688 L 213.039062 167.359375 L 211.402344 167.359375 L 212.726562 168.320312 L 212.222656 169.878906 L 213.546875 168.917969 L 214.871094 169.878906 L 214.363281 168.320312 L 215.6875 167.359375 L 214.050781 167.359375 Z M 213.546875 165.804688 "/>
</g>
</g>
<g clip-path="url(#clip-69)">
<g clip-path="url(#clip-70)">
<path fill-rule="nonzero" fill="rgb(100%, 100%, 100%)" fill-opacity="1" d="M 213.460938 172.605469 L 213.054688 173.847656 L 211.746094 173.847656 L 212.804688 174.617188 L 212.398438 175.863281 L 213.460938 175.09375 L 214.519531 175.863281 L 214.113281 174.617188 L 215.171875 173.847656 L 213.863281 173.847656 Z M 213.460938 172.605469 "/>
</g>
</g>
<g clip-path="url(#clip-71)">
<g clip-path="url(#clip-72)">
<path fill-rule="nonzero" fill="rgb(100%, 100%, 100%)" fill-opacity="1" d="M 219.808594 161.277344 L 219.40625 162.519531 L 218.097656 162.519531 L 219.15625 163.289062 L 218.75 164.535156 L 219.808594 163.765625 L 220.871094 164.535156 L 220.464844 163.289062 L 221.523438 162.519531 L 220.214844 162.519531 Z M 219.808594 161.277344 "/>
</g>
</g>
<g clip-path="url(#clip-73)">
<g clip-path="url(#clip-74)">
<path fill-rule="nonzero" fill="rgb(100%, 100%, 100%)" fill-opacity="1" d="M 224.875 157.648438 L 224.367188 159.207031 L 222.730469 159.207031 L 224.054688 160.167969 L 223.550781 161.726562 L 224.875 160.761719 L 226.199219 161.726562 L 225.691406 160.167969 L 227.015625 159.207031 L 225.378906 159.207031 Z M 224.875 157.648438 "/>
</g>
</g>
<g clip-path="url(#clip-75)">
<g clip-path="url(#clip-76)">
<path fill-rule="nonzero" fill="rgb(100%, 100%, 100%)" fill-opacity="1" d="M 213.289062 160.074219 L 212.882812 161.320312 L 211.574219 161.320312 L 212.632812 162.089844 L 212.226562 163.335938 L 213.289062 162.566406 L 214.347656 163.335938 L 213.941406 162.089844 L 215 161.320312 L 213.691406 161.320312 Z M 213.289062 160.074219 "/>
</g>
</g>
<g clip-path="url(#clip-77)">
<g clip-path="url(#clip-78)">
<path fill-rule="nonzero" fill="rgb(100%, 100%, 100%)" fill-opacity="1" d="M 157.933594 127.441406 L 157.429688 128.996094 L 155.792969 128.996094 L 157.117188 129.960938 L 156.609375 131.515625 L 157.933594 130.554688 L 159.257812 131.515625 L 158.753906 129.960938 L 160.078125 128.996094 L 158.441406 128.996094 Z M 157.933594 127.441406 "/>
</g>
</g>
<g clip-path="url(#clip-79)">
<g clip-path="url(#clip-80)">
<path fill-rule="nonzero" fill="rgb(100%, 100%, 100%)" fill-opacity="1" d="M 199.128906 122.140625 L 198.722656 123.386719 L 197.414062 123.386719 L 198.472656 124.15625 L 198.066406 125.402344 L 199.128906 124.632812 L 200.1875 125.402344 L 199.78125 124.15625 L 200.839844 123.386719 L 199.53125 123.386719 Z M 199.128906 122.140625 "/>
</g>
</g>
<g clip-path="url(#clip-81)">
<g clip-path="url(#clip-82)">
<path fill-rule="nonzero" fill="rgb(100%, 100%, 100%)" fill-opacity="1" d="M 181.964844 152.738281 L 181.355469 154.605469 L 179.390625 154.605469 L 180.980469 155.757812 L 180.375 157.628906 L 181.964844 156.472656 L 183.550781 157.628906 L 182.945312 155.757812 L 184.535156 154.605469 L 182.570312 154.605469 Z M 181.964844 152.738281 "/>
</g>
</g>
<g clip-path="url(#clip-83)">
<g clip-path="url(#clip-84)">
<path fill-rule="nonzero" fill="rgb(100%, 100%, 100%)" fill-opacity="1" d="M 189.257812 140.65625 L 188.753906 142.214844 L 187.117188 142.214844 L 188.441406 143.175781 L 187.933594 144.734375 L 189.257812 143.769531 L 190.582031 144.734375 L 190.078125 143.175781 L 191.402344 142.214844 L 189.765625 142.214844 Z M 189.257812 140.65625 "/>
</g>
</g>
<g clip-path="url(#clip-85)">
<g clip-path="url(#clip-86)">
<path fill-rule="nonzero" fill="rgb(100%, 100%, 100%)" fill-opacity="1" d="M 181.964844 134.992188 L 181.457031 136.550781 L 179.820312 136.550781 L 181.144531 137.511719 L 180.640625 139.070312 L 181.964844 138.105469 L 183.289062 139.070312 L 182.78125 137.511719 L 184.105469 136.550781 L 182.46875 136.550781 Z M 181.964844 134.992188 "/>
</g>
</g>
<g clip-path="url(#clip-87)">
<g clip-path="url(#clip-88)">
<path fill-rule="nonzero" fill="rgb(100%, 100%, 100%)" fill-opacity="1" d="M 175.613281 141.109375 L 175.207031 142.351562 L 173.898438 142.351562 L 174.957031 143.125 L 174.554688 144.367188 L 175.613281 143.597656 L 176.671875 144.367188 L 176.265625 143.125 L 177.328125 142.351562 L 176.015625 142.351562 Z M 175.613281 141.109375 "/>
</g>
</g>
<g clip-path="url(#clip-89)">
<g clip-path="url(#clip-90)">
<path fill-rule="nonzero" fill="rgb(100%, 100%, 100%)" fill-opacity="1" d="M 178.789062 146 L 178.5 146.890625 L 177.5625 146.890625 L 178.320312 147.4375 L 178.03125 148.328125 L 178.789062 147.777344 L 179.542969 148.328125 L 179.253906 147.4375 L 180.011719 146.890625 L 179.078125 146.890625 Z M 178.789062 146 "/>
</g>
</g>
<g clip-path="url(#clip-91)">
<g clip-path="url(#clip-92)">
<path fill-rule="nonzero" fill="rgb(100%, 100%, 100%)" fill-opacity="1" d="M 200.84375 167.347656 L 200.339844 168.902344 L 198.703125 168.902344 L 200.023438 169.867188 L 199.519531 171.421875 L 200.84375 170.460938 L 202.167969 171.421875 L 201.664062 169.867188 L 202.984375 168.902344 L 201.347656 168.902344 Z M 200.84375 167.347656 "/>
</g>
</g>
<g clip-path="url(#clip-93)">
<g clip-path="url(#clip-94)">
<path fill-rule="nonzero" fill="rgb(100%, 100%, 100%)" fill-opacity="1" d="M 206.25 162.21875 L 205.847656 163.464844 L 204.535156 163.464844 L 205.597656 164.234375 L 205.191406 165.480469 L 206.25 164.710938 L 207.308594 165.480469 L 206.90625 164.234375 L 207.964844 163.464844 L 206.65625 163.464844 Z M 206.25 162.21875 "/>
</g>
</g>
<g clip-path="url(#clip-95)">
<g clip-path="url(#clip-96)">
<path fill-rule="nonzero" fill="rgb(100%, 100%, 100%)" fill-opacity="1" d="M 195.867188 160.675781 L 195.460938 161.921875 L 194.152344 161.921875 L 195.210938 162.691406 L 194.808594 163.933594 L 195.867188 163.164062 L 196.925781 163.933594 L 196.519531 162.691406 L 197.582031 161.921875 L 196.269531 161.921875 Z M 195.867188 160.675781 "/>
</g>
</g>
<g clip-path="url(#clip-97)">
<g clip-path="url(#clip-98)">
<path fill-rule="nonzero" fill="rgb(100%, 100%, 100%)" fill-opacity="1" d="M 156.648438 157.886719 L 156.039062 159.753906 L 154.074219 159.753906 L 155.664062 160.910156 L 155.058594 162.777344 L 156.648438 161.621094 L 158.234375 162.777344 L 157.628906 160.910156 L 159.21875 159.753906 L 157.253906 159.753906 Z M 156.648438 157.886719 "/>
</g>
</g>
<g clip-path="url(#clip-99)">
<g clip-path="url(#clip-100)">
<path fill-rule="nonzero" fill="rgb(100%, 100%, 100%)" fill-opacity="1" d="M 181.964844 175.566406 L 181.761719 176.1875 L 181.105469 176.1875 L 181.636719 176.570312 L 181.433594 177.195312 L 181.964844 176.808594 L 182.492188 177.195312 L 182.289062 176.570312 L 182.820312 176.1875 L 182.164062 176.1875 Z M 181.964844 175.566406 "/>
</g>
</g>
</svg>
